<svg version="1.1" id="Calque_1" xmlns="http://www.w3.org/2000/svg" x="0" y="0" viewBox="0 0 207.9 300.7" xml:space="preserve" fill="#fff"><path class="st0" d="M77.5 200c-1.5.4-3 .9-4.5 1.3h52.3c25-8.8 48.7-18.6 69.5-29.5 2.2-1.1 4.3-2.3 6.5-3.4v-20.5c-9.1 5.5-18.6 10.8-28.3 15.9-27.7 14.4-61 26.4-95.5 36.2M128.6 11.5H88.7c-.1.1-.3.2-.4.2C62.9 27 36.7 48.1 11.4 71.3v21.6c23.3-22.6 48.3-43.7 72.3-58.2 15-9.1 30.2-17 44.9-23.2"/><path class="st0" d="M76.8 181c-21.9 6.3-44.3 11.4-65.4 15.6.1 1.3.6 2.5 1.5 3.3.9.9 2.1 1.5 3.5 1.5h46.1c4.8-1.3 9.5-2.6 14.3-3.9 34.4-9.8 67.6-21.8 94.9-36.1 10.2-5.3 20.1-10.9 29.6-16.7v-23.9c-14.9 11.7-32.5 22.7-51.4 32.6-21.2 10.9-46.7 20-73.1 27.6M125.4 140.2c13.8-7.2 26.5-15.2 37-23.7S181.2 99 186 89.8c3.3-6.1 5-12.3 5-18.4 0-5.6-1.4-11.1-4.6-16.8-3.6-6.4-8.3-10.8-13.9-13.7-5.6-2.9-12.2-4.2-19.4-4.2-10.1 0-21.6 2.6-33.7 7.1-12 4.5-24.7 11-37.4 18.6-23.8 14.4-49.3 38.6-70.6 61.5v13.5c1.8-1.9 3.6-3.8 5.5-5.8 18.5-19 42.5-41.4 64.6-54.6 10.5-6.3 21.1-11.7 31.1-15.5 10-3.8 19.4-6.1 27.6-6.1 5.1 0 9.7.9 13.7 2.9s7.3 5.1 9.7 9.3c2 3.6 3 7.4 3 11.2 0 4.9-1.6 9.7-4.4 14.5-2.8 4.8-6.7 9.5-11.6 14.1-9.7 9.2-23.1 18-37.9 25.8-11.3 6-24.9 11.2-38.8 15.7C60 153.3 45.6 157 32.7 160c-7.7 1.8-14.9 3.3-21.3 4.5v9c19.4-3.3 42.2-8 64-14.2 18.1-5.3 35.6-11.6 50-19.1M54.4 11.5C40 22.2 25.6 34 11.4 46.5v21c23.7-21.5 48.2-41.2 72-56h-29zM16.4 11.5c-1.4 0-2.6.6-3.5 1.5-.9.9-1.5 2.1-1.5 3.5v26.4C24.1 31.8 37 21.3 49.8 11.6H16.4zM133.5 201.3h62.8c1.4 0 2.6-.6 3.5-1.5.9-.9 1.5-2.1 1.5-3.5v-24.8c-1.7.9-3.5 1.8-5.2 2.8-19 9.9-40.2 18.9-62.6 27"/><path class="st0" d="M199.8 12.9c-.9-.9-2.1-1.5-3.5-1.5H136c-16.5 6.5-33.7 15.3-50.8 25.6-24.4 14.8-50 36.5-73.8 59.7v23c21-22.4 45.7-45.6 69.2-59.8 12.7-7.7 25.6-14.2 37.9-18.8 12.3-4.6 24.1-7.3 34.7-7.3 7.6 0 14.6 1.4 20.7 4.5s11.2 8 15 14.8c3.4 6 5 12.1 5 18.1 0 6.7-1.9 13.3-5.3 19.7-3.4 6.4-8.4 12.7-14.4 18.7-12.1 12-28.9 23.2-47.4 32.9-14.6 7.6-32.3 14-50.5 19.2-18.2 5.2-37.1 9.3-54.2 12.5-3.6.7-7.2 1.3-10.6 1.9v17.4c20.9-4.1 43.1-9.2 64.7-15.4 26.3-7.5 51.6-16.6 72.5-27.5 19.6-10.2 37.7-21.6 52.7-33.7V16.4c-.2-1.3-.7-2.6-1.6-3.5M11.3 277.9h1.1v-6.1h6.1v-.9h-6.1v-5.6h7.1v-.9h-8.2zM28.5 276.1c-.7.7-1.6 1-2.6 1s-1.9-.4-2.6-1c-1-1-1-2-1-4.9 0-2.9.1-3.9 1-4.9.7-.7 1.6-1 2.6-1s1.9.4 2.6 1c1 1 1 2 1 4.9.1 2.9 0 3.9-1 4.9M26 264.3c-1.3 0-2.5.5-3.4 1.4-1.2 1.2-1.3 2.4-1.3 5.5s0 4.3 1.3 5.5c.9.9 2.1 1.4 3.4 1.4 1.3 0 2.5-.5 3.4-1.4 1.2-1.2 1.3-2.4 1.3-5.5s0-4.3-1.3-5.5c-.9-.9-2.2-1.4-3.4-1.4M42.3 273.4c0 2.2-1.4 3.7-3.6 3.7s-3.6-1.5-3.6-3.7v-9h-1v9.1c0 2.6 1.9 4.5 4.6 4.5 2.7 0 4.6-1.9 4.6-4.5v-9.1h-1v9zM56.1 276.1l-7.8-11.7h-1v13.5h1v-11.7l7.8 11.7h1v-13.5h-1zM68.5 276c-.8.8-1.8 1-2.9 1h-3.3v-11.7h3.3c1.1 0 2.1.2 2.9 1 1.1 1.1 1 3.1 1 4.6 0 1.6.1 4-1 5.1m.7-10.4c-.8-.8-2-1.2-3.4-1.2h-4.5v13.5h4.5c1.4 0 2.6-.4 3.4-1.2 1.4-1.4 1.3-3.9 1.3-5.7 0-1.8.1-4-1.3-5.4M74.7 273.7l2.8-8 2.8 8h-5.6zm2.4-9.3l-5 13.5h1.1l1.2-3.3h6.3l1.2 3.3H83l-5-13.5h-.9zM82.7 265.3h4v12.6h1v-12.6h4.1v-.9h-9.1zM94.4 264.4h1v13.5h-1zM106.3 276.1c-.7.7-1.6 1-2.6 1s-1.9-.4-2.6-1c-1-1-1-2-1-4.9 0-2.9.1-3.9 1-4.9.7-.7 1.6-1 2.6-1s1.9.4 2.6 1c1 1 1 2 1 4.9 0 2.9-.1 3.9-1 4.9m-2.6-11.8c-1.3 0-2.5.5-3.4 1.4-1.2 1.2-1.3 2.4-1.3 5.5s0 4.3 1.3 5.5c.9.9 2.1 1.4 3.4 1.4s2.5-.5 3.4-1.4c1.2-1.2 1.3-2.4 1.3-5.5s0-4.3-1.3-5.5c-.9-.9-2.1-1.4-3.4-1.4M120.8 276.1l-7.8-11.7h-1v13.5h1v-11.7l7.8 11.7h1v-13.5h-1zM30 246.4c.3-1.4.5-3 .5-4.6 0-1.4-.1-2.7-.2-3.8-.1-1.1-.4-2.1-.9-3-.4-.9-1-1.6-1.8-2.3-.8-.6-1.8-1.2-3-1.7l-4.3-1.7c-.7-.3-1.3-.6-1.7-.9-.4-.3-.7-.6-1-1-.2-.4-.4-.8-.4-1.4-.1-.5-.1-1.2-.1-2 0-.7.1-1.3.2-1.9.1-.6.3-1.1.6-1.6s.7-.8 1.2-1.1c.5-.3 1.1-.4 1.9-.4 1.4 0 2.5.5 3.1 1.4.6.9.9 2.1.9 3.4v1.3h5.7v-2.8c0-1.1-.2-2.2-.7-3.2-.4-1.1-1.1-2-1.9-2.9-.8-.8-1.8-1.5-3-2.1-1.2-.5-2.4-.8-3.9-.8-1.6 0-3 .3-4.3.9-1.2.6-2.2 1.3-3 2.3-.8 1-1.4 2.1-1.8 3.4-.4 1.3-.6 2.7-.6 4.2 0 2.5.4 4.5 1.2 6.2.8 1.6 2.5 3 4.9 4l4 1.7c.7.3 1.3.6 1.7.8.4.3.8.6 1 1 .2.4.4.9.5 1.6.1.7.1 1.5.1 2.5 0 .9 0 1.7-.1 2.4s-.2 1.4-.5 1.9-.7.9-1.2 1.2c-.5.3-1.3.4-2.2.4-1.4 0-2.5-.4-3.1-1.2-.6-.8-.9-1.8-.9-2.8V242h-5.6v2.1c0 1.3.2 2.6.7 3.7.5 1.1 1.2 2.1 2 3 .8.8 1.9 1.5 3 2 1.2.5 2.5.7 3.8.7 1.8 0 3.3-.3 4.6-.9 1.3-.6 2.3-1.4 3-2.4.7-1.1 1.3-2.3 1.6-3.8M52.2 247.8c.5-1.1.7-2.3.7-3.6v-30.6h-5.6v30c0 1.4-.3 2.4-1 3.1-.7.7-1.5 1-2.5 1s-1.8-.3-2.5-1-1-1.7-1-3.1v-30h-5.6v30.6c0 1.3.2 2.5.7 3.6.5 1.1 1.1 2.1 2 2.9.8.8 1.8 1.5 2.9 2 1.1.5 2.3.7 3.5.7 1.3 0 2.4-.2 3.5-.7 1.1-.5 2.1-1.1 2.9-2 .9-.8 1.5-1.8 2-2.9M71.4 227.7c-.1.8-.3 1.4-.6 1.9s-.8.9-1.4 1.2c-.6.3-1.4.4-2.4.4h-3.2v-12.3h2.9c1 0 1.9.1 2.5.4.6.3 1.1.7 1.5 1.2.4.5.6 1.2.7 1.9.1.8.2 1.6.2 2.6 0 1.1-.1 2-.2 2.7m1 7.3c1.8-1 3.1-2.3 3.8-4 .7-1.6 1.1-3.6 1.1-5.9 0-7.7-3.3-11.6-10-11.6h-9.1v39.4h5.6v-16.8h3.4l5.3 16.8h6L72.4 235zM98.6 218.9v-5.3H81.7v39.5h5.7v-16.9h9.7v-5.3h-9.7v-12zM115.4 227.7c-.1.8-.3 1.4-.6 1.9s-.8.9-1.4 1.2c-.6.3-1.4.4-2.4.4h-3.2v-12.3h2.9c1 0 1.9.1 2.5.4.6.3 1.1.7 1.5 1.2.4.5.6 1.2.7 1.9.1.8.2 1.6.2 2.6 0 1.1-.1 2-.2 2.7m4.8 3.4c.7-1.6 1.1-3.6 1.1-5.9 0-7.7-3.3-11.6-10-11.6h-9.1V253h5.6v-16.8h3.4l5.3 16.8h6l-6.1-18c1.8-.9 3-2.3 3.8-3.9M125.9 213.6h5.7V253h-5.7zM149.6 242.8c0 1.7-.3 2.9-1 3.7-.7.8-1.8 1.2-3.4 1.2h-2.6v-28.8h2.6c1.7 0 2.8.4 3.4 1.3.6.9.9 2.1.9 3.6v19zm-4.3-29.2H137V253h7.9c3.4 0 5.9-.9 7.7-2.6 1.8-1.8 2.7-4.5 2.7-8.2v-18.4c0-3.2-.9-5.7-2.5-7.5-1.8-1.8-4.3-2.7-7.5-2.7M159.8 253.1h16.9v-5.7h-11.2v-11.6h9.7v-5.3h-9.7v-11.6h11.2v-5.3h-16.9zM186.6 218.9h2.9c1 0 1.9.1 2.5.4.6.3 1.1.7 1.5 1.2.4.5.6 1.2.7 1.9.1.8.2 1.6.2 2.6s-.1 1.9-.2 2.6c-.1.8-.3 1.4-.6 1.9s-.8.9-1.4 1.2c-.6.3-1.4.4-2.4.4h-3.2v-12.2zm0 17.3h3.4l5.3 16.8h6l-6.1-18c1.8-1 3.1-2.3 3.8-4 .7-1.6 1.1-3.6 1.1-5.9 0-7.7-3.3-11.6-10-11.6H181v39.4h5.7v-16.7zM130.9 264.3h8.6v1.9H133v3.9h5.6v1.8H133v3.9h6.5v1.9h-8.6zM142.2 264.3h2v8.7c0 .9.3 1.6.8 2.1s1.2.8 1.9.8c.8 0 1.4-.3 2-.8.5-.5.8-1.2.8-2.1v-8.7h2v8.9c0 1.4-.5 2.5-1.4 3.4-.9.9-2 1.3-3.4 1.3-1.3 0-2.5-.4-3.4-1.3-.9-.8-1.4-2-1.4-3.4v-8.9zM157.4 270.2h3.1c.8 0 1.3-.2 1.7-.7.4-.4.6-.9.6-1.5 0-.7-.2-1.2-.7-1.5-.3-.3-.8-.4-1.5-.4h-3.2v4.1zm-2.1-5.9h5.3c1.1 0 2 .3 2.7.9.9.7 1.3 1.6 1.3 2.9 0 1.8-.9 3.1-2.6 3.7l3.1 6h-2.4L160 272h-2.6v5.8h-2v-13.5zM169.4 271c0 1.3 0 2.2.1 2.7s.3.8.5 1.1c.2.3.5.5.8.7.3.2.8.3 1.2.3.5 0 .9-.1 1.3-.3.3-.2.6-.4.8-.7.3-.3.4-.7.5-1.1.1-.5.1-1.4.1-2.7s0-2.2-.1-2.7-.3-.8-.5-1.1c-.2-.3-.5-.5-.8-.7-.4-.2-.8-.3-1.3-.3s-.9.1-1.2.3c-.4.2-.6.4-.8.7-.3.3-.4.7-.5 1.1 0 .5-.1 1.4-.1 2.7m-2 0c0-1.6 0-2.6.1-3.1s.2-1 .5-1.3c.3-.6.8-1.2 1.6-1.7.7-.5 1.6-.7 2.6-.8 1.1 0 2 .3 2.7.8.7.5 1.2 1 1.5 1.7.2.3.4.8.5 1.3.1.5.1 1.6.1 3.1s0 2.6-.1 3.1-.2 1-.5 1.3c-.3.6-.8 1.2-1.5 1.6-.7.5-1.6.8-2.7.8s-1.9-.3-2.6-.8c-.7-.5-1.2-1-1.6-1.6l-.3-.6c-.1-.2-.1-.4-.2-.7-.1-.5-.1-1.5-.1-3.1M182.4 270.6h3c.8 0 1.3-.2 1.7-.7.4-.4.5-.9.5-1.5 0-.4-.1-.8-.2-1.1-.2-.3-.4-.5-.6-.7-.4-.3-.9-.4-1.5-.4h-2.9v4.4zm-2-6.3h4.9c.5 0 1 0 1.5.1s1 .4 1.5.8c.4.3.8.7 1 1.3.3.5.4 1.2.4 1.9 0 1-.4 1.9-1.1 2.7-.7.9-1.8 1.3-3.2 1.3h-3.1v5.3h-2v-13.4zM192.5 264.3h8.6v1.9h-6.5v3.9h5.6v1.8h-5.6v3.9h6.5v1.9h-8.6z"/></svg>

