<svg version="1.1" id="Ebene_1" xmlns="http://www.w3.org/2000/svg" xmlns:xlink="http://www.w3.org/1999/xlink" x="0" y="0" viewBox="0 0 286.4 352.7" xml:space="preserve"><style>.st0,.st1{fill-rule:evenodd;clip-rule:evenodd}.st0{clip-path:url(#SVGID_2_);fill:#ffed00}.st1{fill:#008237}.st1,.st2{clip-path:url(#SVGID_2_)}.st3{fill:#008237}</style><defs><path id="SVGID_1_" d="M-276-157.3h841.9V438H-276z"/></defs><clipPath id="SVGID_2_"><use xlink:href="#SVGID_1_" overflow="visible"/></clipPath><path class="st0" d="M144.6 283.5c78.1 0 141.7-63.7 141.7-141.7C286.4 63.7 222.7 0 144.6 0 66.6 0 2.9 63.7 2.9 141.7c0 78.1 63.7 141.8 141.7 141.8"/><path class="st1" d="M142.9 246.3s1-5.8 1.4-8.4c2.4-15.1 3.9-30.5 7.7-45.3 4.6-16.9 9.4-35 17.4-50.7 1.5-2.4 3.8-7 7.3-6.9 9.1-.7 18.3-3.7 25.8-9.1 5.6-4.1 10-8.7 13.1-15 2.4-6.3 3.4-12.5 3.4-19.3.1-6.1 1.1-11.6 3.4-17.2.5-1.6 1.1-3.1 1-4.7-3.5-.4-7.9 2.6-11.1 3.8-7.6 2.5-15.9 3.6-23.7 5.1-6.3 1.1-12.1 2.9-17.4 6.7-8.6 6.1-12.9 13.6-16.1 23.6-1.4 5.6-2.5 12.1-2.1 17.9l.3.7c1.5-.5 4-4.9 4.8-6.2 5.1-8 10.2-15.2 18-21 1.3-.8 8.6-4.8 9.5-2.8-.1 2.6-4.3 6.2-6 8.3-15.1 17.8-24 41.7-31.9 63.4-4.3 12-7.1 24.7-12.2 36.3-.2.4-.6 1.3-1.1 1.5-1.4-1.4-2.2-4.8-2.8-6.6-2.3-8.2-4.4-16.8-6.7-25-5.8-21.8-12.6-47.2-25.9-65.8-10.1-13.7-23.8-28.9-40.2-34.8H58c-.6 1.3.8 2.3 1.6 3.2 19.7 20.1 35.5 47.6 44 74.2 8.9 27.9 17.2 57.7 22.1 86.6.4 2.3.9 5.2 1.5 7.5 0 0 5.3.3 7.8.3 2.6 0 7.9-.3 7.9-.3M32.8 178.2l-3 1.2.1.3c.1 0 .2 0 .3.1.1.1.2.3.3.5l4 9.9-3.9 1.6-2.5-6.3c-.1-.2-.1-.4-.1-.6 0-.1.1-.2.2-.2l-.1-.3-3 1.2.1.3c.1 0 .2 0 .3.1.1.1.2.2.3.5l2.5 6.3-3.7 1.5-3.9-9.7c-.1-.3-.1-.4-.1-.6 0-.1.1-.2.2-.3l-.1-.3-3.1 1.2.1.3c.1 0 .2 0 .3.1.1.1.2.3.3.5l5.3 13.1.3-.1c-.1-.2-.1-.3 0-.4.1-.1.2-.2.4-.3l12.9-5.2c.2-.1.4-.1.5-.1.1 0 .2.1.3.3l.3-.1-5.3-13.2c-.1-.2-.1-.4-.2-.6 0-.1 0-.2.2-.3l-.2-.4zM15.7 177.4l.4-.1c-.1-.2 0-.4 0-.5.1-.1.2-.2.4-.2l9.2-2c2.1-.5 3.4-1.5 4-3.1.5-1.6.5-3.6 0-6s-1.3-4.3-2.4-5.5c-1.1-1.2-2.7-1.6-4.9-1.2l-9.2 2c-.2.1-.4 0-.5 0-.1-.1-.2-.2-.2-.4l-.4.1.9 4.1.4-.1c0-.2 0-.3.1-.4.1-.1.2-.2.4-.2l9.3-2c1.1-.2 2 0 2.6.7.6.7 1.1 1.8 1.4 3.5.4 1.6.4 2.8.1 3.7-.3.9-1 1.5-2.1 1.7l-9.3 2h-.5c-.1 0-.2-.2-.2-.3l-.4.1.9 4.1zM13.7 148.3l-.1-6c0-1.1.1-1.9.5-2.5.3-.6.8-.9 1.5-.9s1.2.1 1.6.6c.4.4.6 1.2.6 2.3l.1 6.5h-4.2zm6.7-4.8l4.8-3.3c.2-.2.4-.3.7-.5.2-.2.4-.3.6-.3.1 0 .1 0 .1.1v.1h.4l-.1-4.7h-.4c0 .2-.1.4-.2.5-.1.2-.2.3-.4.4l-5.6 4c-.2-1.3-.7-2.4-1.5-3.2-.8-.8-1.8-1.2-3-1.2-1.8 0-3 .7-3.7 2-.7 1.3-1 3.1-1 5.5l.2 8.8h.4c0-.2 0-.4.1-.5.1-.1.3-.1.5-.1l13.9-.2c.2 0 .4 0 .5.1.1.1.1.2.1.4h.4l-.1-4.2h-.4c0 .2 0 .3-.1.4-.1.1-.3.1-.5.1l-5.6.1-.1-4.3zM12.7 119.5c-.3 1.9-.2 3.6.3 5.2s1.3 2.8 2.3 3.8c1.1 1 2.4 1.6 3.9 1.9 1.5.2 3 0 4.3-.6 1.3-.6 2.5-1.6 3.4-2.9.9-1.3 1.6-3 1.9-4.9.3-1.9.2-3.6-.3-5.2s-1.3-2.8-2.3-3.8c-1.1-1-2.4-1.6-3.9-1.9-1.5-.2-3 0-4.3.6-1.3.6-2.5 1.6-3.4 2.9-1 1.4-1.6 3-1.9 4.9m2.5.4c.3-2 1.1-3.5 2.3-4.6 1.2-1 2.6-1.5 4.3-1.2 1.7.3 2.9 1.1 3.7 2.5.8 1.4 1.1 3.1.8 5.1-.3 2-1.1 3.5-2.3 4.6-1.2 1-2.6 1.5-4.3 1.2-1.7-.3-2.9-1.1-3.7-2.5-.8-1.4-1.1-3.1-.8-5.1M28.7 96.4c.6-1.8.6-3.2.1-4.2s-1.4-1.8-2.7-2.2c-1.5-.5-2.8-.5-3.8.2-1 .6-1.8 1.8-2.4 3.4l-3.3 9.6.3.1c.1-.2.2-.3.3-.4.1 0 .3 0 .5.1l13.1 4.5.4.2c.1.1.1.2 0 .4l.3.1 1.4-4-.3-.1c-.1.2-.1.3-.3.3-.1 0-.3 0-.5-.1l-5.4-1.8 2.3-6.1zm-8.5 4.2l2-5.7c.3-.9.7-1.6 1.1-1.8.4-.3 1-.3 1.7 0 .7.2 1.2.6 1.4 1.1.2.5.1 1.2-.3 2.1l-2 5.7-3.9-1.4zM46.5 76.9l-2.8-1.6-.2.3c.1.1.2.2.1.3 0 .1-.1.3-.2.5l-5.2 9.3-3.7-2 3.3-5.9c.1-.2.3-.4.4-.4.1-.1.2-.1.3 0l.2-.3-2.9-1.6-.2.3c.1.1.2.1.2.3 0 .1-.1.3-.2.5l-3.3 5.9-3.5-1.9 5.1-9.1c.1-.2.3-.4.4-.4.1-.1.3-.1.4 0l.2-.3L32 69l-.2.3c.1 0 .1.1.1.3 0 .1-.1.3-.2.6l-6.8 12.3.3.2c.1-.2.2-.3.3-.3.1 0 .3 0 .5.2l12.1 6.7c.2.1.3.2.4.3.1.1 0 .2-.1.4l.3.2 6.9-12.5c.1-.2.2-.4.3-.5.1-.1.2-.1.3 0l.3-.3zM50.3 71.4l-.3-.2c-.1.1-.2.2-.3.2-.1 0-.2 0-.3-.1 0 0-.1-.1-.2-.3-.1-.2-.2-.5-.5-.9-.2-.5-.6-1.2-1.1-2.2l4.7-5.8c1.1.3 1.9.5 2.5.6.5.1.9.2 1 .3.2.1.3.1.3.2.1.1.1.1.1.2s0 .1-.1.2l.3.2 2.7-3.3-.3-.2c-.1.1-.2.1-.4.1s-.4 0-.7-.1l-14.4-3.7c-.1 0-.2-.1-.3-.1-.1 0-.2-.1-.3-.1-.1-.1-.1-.1-.1-.2s0-.1.1-.2l-.3-.2-2.9 3.5.3.2c.1-.1.1-.1.2-.1h.2l.2.2c0 .1.1.2.1.3L47 72.7c.2.4.3.6.4.9.1.2.1.4-.1.6l.3.2 2.7-3zm-.7-10l-3.3 4-2.8-5.6 6.1 1.6zM56.5 46.8l14.4 1.8c.2 0 .4 0 .5.1.1 0 .2.1.3.1 0 .1.1.1.1.2s-.1.1-.1.2l.2.3 3-2.5-.2-.3c-.1.1-.2.1-.4.1-.1 0-.2-.1-.4-.3L65 35.9c-.1-.2-.2-.3-.2-.4 0-.1 0-.2.2-.3l-.2-.3-2.8 2.3.2.3c.1-.1.2-.1.3-.1.1 0 .2.1.4.3l6.5 7.8-13.6-1.6h-.4c-.1 0-.2 0-.3-.1-.1-.3-.1-.4-.1-.4 0-.1.1-.1.1-.2l-.2-.3-3.4 2.8.2.3c.1-.1.2-.1.3-.1.1 0 .2.1.4.3l8.9 10.6c.1.2.2.3.2.4 0 .1 0 .2-.2.3l.2.3 2.7-2.3-.2-.3c-.1.1-.2.1-.3.1-.1 0-.2-.1-.4-.3l-6.8-8.2zM92.5 18.8l.2.3c.1 0 .2-.1.3-.1.1 0 .2 0 .2.1s.1.6.1 1.3c0 .8 0 1.6.1 2.5l.2 8.5L87 26c-1-.8-1.7-1.4-2.2-1.8-.5-.4-.8-.6-.8-.7v-.2l.2-.2-.2-.3-4.1 1.9.2.3c.3-.1.5-.1.6 0 .2.1.3.2.4.4L92.4 35c.1.1.2.2.3.2l.2.2v.2c0 .1-.1.1-.2.2l.2.3 3.9-1.8-.2-.3c-.1 0-.2.1-.3.1-.1 0-.1 0-.2-.1 0-.1-.1-.2-.1-.3v-.3l-.4-14.7c0-.2 0-.5.1-.7.1-.2.2-.3.3-.4l-.2-.3-3.3 1.5zM121.1 26.6l-.8-3.1-.3.1c0 .1 0 .2-.1.3-.1.1-.3.2-.5.2L109 26.9l-1.1-4.1 6.6-1.8c.2-.1.4-.1.6 0 .1 0 .2.1.2.2l.3-.1-.8-3.2-.3.1c0 .1 0 .2-.1.3-.1.1-.3.2-.5.2l-6.6 1.8-1-3.9 10.1-2.7c.3-.1.5-.1.6 0 .1.1.2.1.3.3l.3-.1-.9-3.2-.3.1c0 .1 0 .2-.1.3-.1.1-.3.2-.5.2L102.1 15l.1.3c.2-.1.3 0 .4 0 .1.1.2.2.2.4l3.6 13.4c.1.2.1.4 0 .5 0 .1-.1.2-.3.2l.1.3 13.8-3.7c.2-.1.4-.1.6-.1.1 0 .2.1.2.2l.3.1zM138.3 21c-.3.2-.9.5-1.7.8-.8.3-1.7.5-2.7.6-2 .2-3.6-.2-5-1-1.3-.8-2.1-2.2-2.3-4-.1-1.2.1-2.3.6-3.1.5-.9 1.2-1.6 2.2-2.1.9-.5 2-.8 3.1-.9 1.1-.1 2.1 0 2.9.2.8.2 1.5.4 1.9.7.5.3.7.4.7.6V13.1l.3.2 1.6-3.6-.4-.1c-.1.1-.2.1-.3.2-.1 0-.3-.1-.7-.2-.4-.1-.8-.2-1.3-.4-.6-.1-1.2-.2-2-.3-.8-.1-1.7-.1-2.7 0-1.8.2-3.4.6-4.8 1.4-1.4.8-2.4 1.8-3.2 3.1-.7 1.3-1 2.8-.9 4.6.2 1.9.7 3.3 1.6 4.5.9 1.1 2.1 1.9 3.6 2.4s3.1.6 4.9.5c1.6-.1 3.1-.5 4.5-1s2.5-1.3 3.5-2.1v-.4c-.1 0-.2-.1-.2-.2-.1-.1-.1-.2-.1-.3l-.4-4.3v-.4c0-.1.1-.1.2-.2v-.4l-7.1.6c-.2 0-.4 0-.5-.1-.1-.1-.2-.1-.2-.3h-.4l.3 3.4h.4c0-.1 0-.2.2-.3.1-.1.3-.2.5-.2l3.8-.3.1 2.1zM161.7 25.6l.3-3.2h-.4c0 .1-.1.2-.2.3-.1.1-.3.1-.6 0l-10.6-.9.4-4.2 6.8.6c.3 0 .4.1.5.2.1.1.2.2.1.3h.4l.3-3.3h-.4c0 .1-.1.2-.2.3-.1.1-.3.1-.6 0l-6.8-.6.3-4 10.4.9c.3 0 .5.1.6.2.1.1.2.2.1.3h.4l.3-3.3h-.4c0 .1-.1.2-.2.2s-.3.1-.6 0l-14-1.2v.4c.2 0 .3.1.4.2.1.1.1.3 0 .5L147 23c0 .2-.1.4-.1.5-.1.1-.2.1-.4.1v.4l14.2 1.2c.3 0 .4.1.6.1.1.1.2.1.2.3h.2zM174.9 27.8c-.2 0-.3-.1-.4-.2v-.5l3-12 5 1.2c.3.1.4.1.5.2.1.1.1.2.1.3l.3.1.8-3.1-.4-.1c0 .1-.1.2-.2.2s-.3 0-.6-.1l-13.1-3.3c-.2-.1-.4-.1-.5-.2-.1-.1-.1-.2-.1-.3l-.3-.1-.8 3.1.4.1c0-.1.1-.2.2-.2s.3 0 .6.1l5 1.2-3 12c-.1.2-.1.4-.2.5-.1.1-.2.1-.4 0l-.1.4 4.1 1 .1-.3zM185.5 31.4l.1-.3c-.1-.1-.2-.1-.3-.2v-.3l.2-.2c.1-.1.4-.4.8-.7.4-.4 1-.9 1.8-1.7l6.9 2.8c0 1.2.1 2 .1 2.5v1.1c0 .2 0 .3-.1.4 0 .1-.1.1-.2.1h-.3l-.1.3 3.9 1.6.1-.3c-.1 0-.2-.1-.2-.3 0-.2-.1-.4-.1-.7l-.7-14.9v-.3-.3c0-.1.1-.1.2-.1h.2l.1-.3-4.2-1.7-.1.3c.1 0 .1.1.2.2v.2c0 .1-.1.2-.2.3l-.2.2-10.3 9.9-.7.7c-.2.2-.4.2-.6.1l-.1.3 3.8 1.3zm9.4-3.5l-4.8-1.9 4.5-4.3.3 6.2zM212 29.4l5.1 3.3c.9.6 1.5 1.2 1.8 1.8.3.6.3 1.2-.1 1.8-.4.6-.8.9-1.3 1-.5.1-1.3-.2-2.2-.8l-5.5-3.6 2.2-3.5zm.2 8.1l.1 5.8v.8c0 .3 0 .5-.1.6 0 .1-.1.1-.1.1h-.1l-.2.3 4 2.6.2-.3c-.2-.1-.3-.3-.4-.4-.1-.2-.1-.4-.1-.6l-.2-6.9c1.2.6 2.3.8 3.4.6 1.1-.2 2-.8 2.7-1.9 1-1.5 1.1-2.9.4-4.2-.7-1.3-2-2.6-4-3.9l-7.4-4.8-.2.3c.2.1.3.2.3.4 0 .1-.1.3-.2.5L202.7 38c-.1.2-.2.3-.3.4-.1 0-.3 0-.5-.1l-.2.3 3.5 2.3.2-.3c-.2-.1-.2-.2-.2-.3 0-.1.1-.3.2-.5l3.1-4.7 3.7 2.4zM231.1 41.5c.1-.2.3-.3.4-.3.1 0 .3.1.5.2l.2-.3-3.5-2.9-.2.3c.2.2.4.4.4.5 0 .1-.1.3-.2.5l-8.9 10.6c-.1.2-.3.3-.4.3-.1 0-.3-.1-.6-.3l-.2.3 3.5 2.9.2-.3c-.2-.2-.3-.3-.3-.4 0-.1.1-.3.2-.5l8.9-10.6zM227.3 58.1l.3-.2c-.1-.1-.2-.2-.2-.3 0-.1 0-.2.1-.3 0 0 .1-.1.3-.1.2-.1.5-.2 1-.4s1.3-.5 2.3-.8l5.1 5.5c-.4 1.1-.8 1.9-1 2.4-.2.5-.3.8-.4 1-.1.2-.1.3-.2.3-.1.1-.1.1-.2.1s-.1-.1-.2-.1l-.3.2 2.9 3.1.3-.2c-.1-.1-.1-.2-.1-.4s.1-.4.2-.6l5.6-13.8c0-.1.1-.2.1-.3 0-.1.1-.2.1-.2.1-.1.1-.1.2-.1s.1 0 .2.1l.3-.2-3.1-3.3-.3.2c.1.1.1.1.1.2s0 .1-.1.2-.2.1-.3.2c-.1 0-.2.1-.3.1L226.1 55c-.4.1-.7.3-.9.3-.2.1-.4 0-.6-.2l-.3.2 3 2.8zm10.1.8l-3.5-3.8 5.9-2-2.4 5.8zM250.9 67.7l-3.7 14c-.1.2-.1.4-.1.5 0 .1-.1.2-.1.3h-.2c-.1 0-.1-.1-.2-.2l-.3.2 2.1 3.3.3-.2c-.1-.1-.1-.3-.1-.4 0-.1.2-.2.4-.3l11.8-7.4c.2-.1.3-.2.5-.2.1 0 .2.1.3.2l.3-.2-1.9-3.1-.3.2c.1.1.1.2.1.3 0 .1-.2.2-.4.3l-8.6 5.4 3.5-13.2c0-.2.1-.3.1-.4 0-.1.1-.2.2-.2s.1-.1.2 0c.1 0 .1.1.1.1l.3-.2-2.3-3.7-.3.2c.1.1.1.2.1.3 0 .1-.2.2-.4.3L240.5 71c-.2.1-.3.2-.5.2-.1 0-.2-.1-.3-.2l-.3.2 1.9 3 .3-.2c-.1-.1-.1-.2 0-.3 0-.1.2-.2.4-.3l8.9-5.7zM270.2 95.7l-.3.1c.1.2.1.4 0 .5-.1.1-.2.2-.4.2l-9 2.8c-2.1.7-3.3 1.8-3.7 3.4-.4 1.6-.2 3.6.6 6 .7 2.4 1.6 4.1 2.9 5.3 1.2 1.1 2.9 1.4 5 .8l9-2.8c.2-.1.4-.1.5 0 .1 0 .2.2.3.4l.3-.1-1.2-4.1-.3.1c.1.2.1.3 0 .4-.1.1-.2.2-.4.2l-9.1 2.8c-1.1.3-2 .2-2.7-.5-.7-.6-1.2-1.7-1.7-3.3-.5-1.6-.6-2.8-.4-3.7.2-.9.9-1.5 1.9-1.9l9.1-2.8c.2-.1.4-.1.5 0 .1 0 .2.1.2.3l.3-.1-1.4-4zM273 124.5l-9.7 10.8c-.1.1-.2.3-.4.4-.1.1-.2.2-.3.2-.1 0-.1 0-.2-.1s-.1-.1-.1-.2h-.4l.3 3.9h.4c0-.2 0-.3.1-.4.1-.1.2-.1.5-.1l13.8-1.2c.2 0 .4 0 .5.1.1.1.2.2.2.3h.4l-.3-3.6h-.4c0 .2 0 .3-.1.3-.1.1-.2.1-.5.1l-10.1.9 9.1-10.2.3-.3c.1-.1.2-.1.2-.2.1 0 .2 0 .2.1 0 0 .1.1.1.2h.4l-.4-4.4h-.4c0 .2 0 .3-.1.3-.1.1-.2.1-.5.1l-13.8 1.2h-.5c-.1-.1-.2-.2-.2-.3h-.4l.3 3.5h.4c0-.1 0-.2.1-.3.1-.1.2-.1.5-.1l11-1zM276.9 148.9c.2 0 .4 0 .5.1.1.1.1.3.1.5h.4l.2-4.5h-.4c0 .3-.1.5-.2.6-.1.1-.3.1-.5.1l-13.9-.5c-.2 0-.4 0-.5-.1-.1-.1-.1-.3-.1-.6h-.4l-.1 4.5h.4c0-.3.1-.4.2-.5.1-.1.3-.1.5-.1l13.8.5zM276.4 165c.3-1.9.2-3.6-.3-5.2s-1.3-2.8-2.3-3.8c-1.1-1-2.4-1.6-3.9-1.9-1.5-.2-3 0-4.3.6-1.3.6-2.5 1.6-3.4 2.9-.9 1.3-1.6 3-1.9 4.9-.3 1.9-.2 3.6.3 5.2s1.3 2.8 2.3 3.8c1.1 1 2.4 1.6 3.9 1.9 1.5.2 3 0 4.3-.6 1.3-.6 2.5-1.6 3.4-2.9s1.5-3 1.9-4.9m-2.6-.4c-.3 2-1.1 3.5-2.3 4.6-1.2 1-2.6 1.5-4.3 1.2-1.7-.3-2.9-1.1-3.7-2.5-.8-1.4-1.1-3.1-.8-5.1.3-2 1.1-3.5 2.3-4.6 1.2-1 2.6-1.5 4.3-1.2 1.7.3 2.9 1.1 3.7 2.5.9 1.4 1.1 3.1.8 5.1M267.2 183.6l-13.4 5.4c-.2.1-.3.1-.5.2-.1 0-.2.1-.3 0-.1 0-.1-.1-.1-.2v-.3l-.3-.1-1.4 3.7.3.1c.1-.2.1-.2.3-.3.1 0 .3 0 .5.1l13 5c.2.1.4.2.4.3.1.1.1.2 0 .4l.3.1 1.3-3.4-.3-.1c-.1.1-.1.2-.2.3-.1 0-.3 0-.5-.1l-9.4-3.6 12.7-5.2c.1-.1.3-.1.4-.2.1 0 .2-.1.3 0 .1 0 .1.1.1.1v.2l.3.1 1.6-4.1-.3-.1c-.1.1-.1.2-.2.3-.1 0-.3 0-.5-.1l-13-5c-.2-.1-.4-.2-.4-.3-.1-.1-.1-.2 0-.4l-.3-.1-1.3 3.3.3.1c0-.1.1-.2.2-.2s.3 0 .5.1l9.9 4zM41.2 207.9c2 0 3.5 1.6 3.5 3.5 0 2-1.6 3.5-3.5 3.5s-3.5-1.6-3.5-3.5c-.1-1.9 1.5-3.5 3.5-3.5M247.7 207.8c2 0 3.5 1.6 3.5 3.5 0 2-1.6 3.5-3.5 3.5-2 0-3.5-1.6-3.5-3.5s1.6-3.5 3.5-3.5"/><path class="st1" d="M32.8 178.2l-3 1.2.1.3c.1 0 .2 0 .3.1.1.1.2.3.3.5l4 9.9-3.9 1.6-2.5-6.3c-.1-.2-.1-.4-.1-.6 0-.1.1-.2.2-.2l-.1-.3-3 1.2.1.3c.1 0 .2 0 .3.1.1.1.2.2.3.5l2.5 6.3-3.7 1.5-3.9-9.7c-.1-.3-.1-.4-.1-.6 0-.1.1-.2.2-.3l-.1-.3-3.1 1.2.1.3c.1 0 .2 0 .3.1.1.1.2.3.3.5l5.3 13.1.3-.1c-.1-.2-.1-.3 0-.4.1-.1.2-.2.4-.3l12.9-5.2c.2-.1.4-.1.5-.1.1 0 .2.1.3.3l.3-.1-5.3-13.2c-.1-.2-.1-.4-.2-.6 0-.1 0-.2.2-.3l-.2-.4zM15.7 177.4l.4-.1c-.1-.2 0-.4 0-.5.1-.1.2-.2.4-.2l9.2-2c2.1-.5 3.4-1.5 4-3.1.5-1.6.5-3.6 0-6s-1.3-4.3-2.4-5.5c-1.1-1.2-2.7-1.6-4.9-1.2l-9.2 2c-.2.1-.4 0-.5 0-.1-.1-.2-.2-.2-.4l-.4.1.9 4.1.4-.1c0-.2 0-.3.1-.4.1-.1.2-.2.4-.2l9.3-2c1.1-.2 2 0 2.6.7.6.7 1.1 1.8 1.4 3.5.4 1.6.4 2.8.1 3.7-.3.9-1 1.5-2.1 1.7l-9.3 2h-.5c-.1 0-.2-.2-.2-.3l-.4.1.9 4.1zM13.7 148.3l-.1-6c0-1.1.1-1.9.5-2.5.3-.6.8-.9 1.5-.9s1.2.1 1.6.6c.4.4.6 1.2.6 2.3l.1 6.5h-4.2zm6.7-4.8l4.8-3.3c.2-.2.4-.3.7-.5.2-.2.4-.3.6-.3.1 0 .1 0 .1.1v.1h.4l-.1-4.7h-.4c0 .2-.1.4-.2.5-.1.2-.2.3-.4.4l-5.6 4c-.2-1.3-.7-2.4-1.5-3.2-.8-.8-1.8-1.2-3-1.2-1.8 0-3 .7-3.7 2-.7 1.3-1 3.1-1 5.5l.2 8.8h.4c0-.2 0-.4.1-.5.1-.1.3-.1.5-.1l13.9-.2c.2 0 .4 0 .5.1.1.1.1.2.1.4h.4l-.1-4.2h-.4c0 .2 0 .3-.1.4-.1.1-.3.1-.5.1l-5.6.1-.1-4.3zM12.7 119.5c-.3 1.9-.2 3.6.3 5.2s1.3 2.8 2.3 3.8c1.1 1 2.4 1.6 3.9 1.9 1.5.2 3 0 4.3-.6 1.3-.6 2.5-1.6 3.4-2.9.9-1.3 1.6-3 1.9-4.9.3-1.9.2-3.6-.3-5.2s-1.3-2.8-2.3-3.8c-1.1-1-2.4-1.6-3.9-1.9-1.5-.2-3 0-4.3.6-1.3.6-2.5 1.6-3.4 2.9-1 1.4-1.6 3-1.9 4.9m2.5.4c.3-2 1.1-3.5 2.3-4.6 1.2-1 2.6-1.5 4.3-1.2 1.7.3 2.9 1.1 3.7 2.5.8 1.4 1.1 3.1.8 5.1-.3 2-1.1 3.5-2.3 4.6-1.2 1-2.6 1.5-4.3 1.2-1.7-.3-2.9-1.1-3.7-2.5-.8-1.4-1.1-3.1-.8-5.1M28.7 96.4c.6-1.8.6-3.2.1-4.2s-1.4-1.8-2.7-2.2c-1.5-.5-2.8-.5-3.8.2-1 .6-1.8 1.8-2.4 3.4l-3.3 9.6.3.1c.1-.2.2-.3.3-.4.1 0 .3 0 .5.1l13.1 4.5.4.2c.1.1.1.2 0 .4l.3.1 1.4-4-.3-.1c-.1.2-.1.3-.3.3-.1 0-.3 0-.5-.1l-5.4-1.8 2.3-6.1zm-8.5 4.2l2-5.7c.3-.9.7-1.6 1.1-1.8.4-.3 1-.3 1.7 0 .7.2 1.2.6 1.4 1.1.2.5.1 1.2-.3 2.1l-2 5.7-3.9-1.4zM46.5 76.9l-2.8-1.6-.2.3c.1.1.2.2.1.3 0 .1-.1.3-.2.5l-5.2 9.3-3.7-2 3.3-5.9c.1-.2.3-.4.4-.4.1-.1.2-.1.3 0l.2-.3-2.9-1.6-.2.3c.1.1.2.1.2.3 0 .1-.1.3-.2.5l-3.3 5.9-3.5-1.9 5.1-9.1c.1-.2.3-.4.4-.4.1-.1.3-.1.4 0l.2-.3L32 69l-.2.3c.1 0 .1.1.1.3 0 .1-.1.3-.2.6l-6.8 12.3.3.2c.1-.2.2-.3.3-.3.1 0 .3 0 .5.2l12.1 6.7c.2.1.3.2.4.3.1.1 0 .2-.1.4l.3.2 6.9-12.5c.1-.2.2-.4.3-.5.1-.1.2-.1.3 0l.3-.3zM50.3 71.4l-.3-.2c-.1.1-.2.2-.3.2-.1 0-.2 0-.3-.1 0 0-.1-.1-.2-.3-.1-.2-.2-.5-.5-.9-.2-.5-.6-1.2-1.1-2.2l4.7-5.8c1.1.3 1.9.5 2.5.6.5.1.9.2 1 .3.2.1.3.1.3.2.1.1.1.1.1.2s0 .1-.1.2l.3.2 2.7-3.3-.3-.2c-.1.1-.2.1-.4.1s-.4 0-.7-.1l-14.4-3.7c-.1 0-.2-.1-.3-.1-.1 0-.2-.1-.3-.1-.1-.1-.1-.1-.1-.2s0-.1.1-.2l-.3-.2-2.9 3.5.3.2c.1-.1.1-.1.2-.1h.2l.2.2c0 .1.1.2.1.3L47 72.7c.2.4.3.6.4.9.1.2.1.4-.1.6l.3.2 2.7-3zm-.7-10l-3.3 4-2.8-5.6 6.1 1.6zM56.5 46.8l14.4 1.8c.2 0 .4 0 .5.1.1 0 .2.1.3.1 0 .1.1.1.1.2s-.1.1-.1.2l.2.3 3-2.5-.2-.3c-.1.1-.2.1-.4.1-.1 0-.2-.1-.4-.3L65 35.9c-.1-.2-.2-.3-.2-.4 0-.1 0-.2.2-.3l-.2-.3-2.8 2.3.2.3c.1-.1.2-.1.3-.1.1 0 .2.1.4.3l6.5 7.8-13.6-1.6h-.4c-.1 0-.2 0-.3-.1-.1-.3-.1-.4-.1-.4 0-.1.1-.1.1-.2l-.2-.3-3.4 2.8.2.3c.1-.1.2-.1.3-.1.1 0 .2.1.4.3l8.9 10.6c.1.2.2.3.2.4 0 .1 0 .2-.2.3l.2.3 2.7-2.3-.2-.3c-.1.1-.2.1-.3.1-.1 0-.2-.1-.4-.3l-6.8-8.2zM92.5 18.8l.2.3c.1 0 .2-.1.3-.1.1 0 .2 0 .2.1s.1.6.1 1.3c0 .8 0 1.6.1 2.5l.2 8.5L87 26c-1-.8-1.7-1.4-2.2-1.8-.5-.4-.8-.6-.8-.7v-.2l.2-.2-.2-.3-4.1 1.9.2.3c.3-.1.5-.1.6 0 .2.1.3.2.4.4L92.4 35c.1.1.2.2.3.2l.2.2v.2c0 .1-.1.1-.2.2l.2.3 3.9-1.8-.2-.3c-.1 0-.2.1-.3.1-.1 0-.1 0-.2-.1 0-.1-.1-.2-.1-.3v-.3l-.4-14.7c0-.2 0-.5.1-.7.1-.2.2-.3.3-.4l-.2-.3-3.3 1.5zM121.1 26.6l-.8-3.1-.3.1c0 .1 0 .2-.1.3-.1.1-.3.2-.5.2L109 26.9l-1.1-4.1 6.6-1.8c.2-.1.4-.1.6 0 .1 0 .2.1.2.2l.3-.1-.8-3.2-.3.1c0 .1 0 .2-.1.3-.1.1-.3.2-.5.2l-6.6 1.8-1-3.9 10.1-2.7c.3-.1.5-.1.6 0 .1.1.2.1.3.3l.3-.1-.9-3.2-.3.1c0 .1 0 .2-.1.3-.1.1-.3.2-.5.2L102.1 15l.1.3c.2-.1.3 0 .4 0 .1.1.2.2.2.4l3.6 13.4c.1.2.1.4 0 .5 0 .1-.1.2-.3.2l.1.3 13.8-3.7c.2-.1.4-.1.6-.1.1 0 .2.1.2.2l.3.1zM138.3 21c-.3.2-.9.5-1.7.8-.8.3-1.7.5-2.7.6-2 .2-3.6-.2-5-1-1.3-.8-2.1-2.2-2.3-4-.1-1.2.1-2.3.6-3.1.5-.9 1.2-1.6 2.2-2.1.9-.5 2-.8 3.1-.9 1.1-.1 2.1 0 2.9.2.8.2 1.5.4 1.9.7.5.3.7.4.7.6V13.1l.3.2 1.6-3.6-.4-.1c-.1.1-.2.1-.3.2-.1 0-.3-.1-.7-.2-.4-.1-.8-.2-1.3-.4-.6-.1-1.2-.2-2-.3-.8-.1-1.7-.1-2.7 0-1.8.2-3.4.6-4.8 1.4-1.4.8-2.4 1.8-3.2 3.1-.7 1.3-1 2.8-.9 4.6.2 1.9.7 3.3 1.6 4.5.9 1.1 2.1 1.9 3.6 2.4s3.1.6 4.9.5c1.6-.1 3.1-.5 4.5-1s2.5-1.3 3.5-2.1v-.4c-.1 0-.2-.1-.2-.2-.1-.1-.1-.2-.1-.3l-.4-4.3v-.4c0-.1.1-.1.2-.2v-.4l-7.1.6c-.2 0-.4 0-.5-.1-.1-.1-.2-.1-.2-.3h-.4l.3 3.4h.4c0-.1 0-.2.2-.3.1-.1.3-.2.5-.2l3.8-.3.1 2.1zM161.7 25.6l.3-3.2h-.4c0 .1-.1.2-.2.3-.1.1-.3.1-.6 0l-10.6-.9.4-4.2 6.8.6c.3 0 .4.1.5.2.1.1.2.2.1.3h.4l.3-3.3h-.4c0 .1-.1.2-.2.3-.1.1-.3.1-.6 0l-6.8-.6.3-4 10.4.9c.3 0 .5.1.6.2.1.1.2.2.1.3h.4l.3-3.3h-.4c0 .1-.1.2-.2.2s-.3.1-.6 0l-14-1.2v.4c.2 0 .3.1.4.2.1.1.1.3 0 .5L147 23c0 .2-.1.4-.1.5-.1.1-.2.1-.4.1v.4l14.2 1.2c.3 0 .4.1.6.1.1.1.2.1.2.3h.2zM174.9 27.8c-.2 0-.3-.1-.4-.2v-.5l3-12 5 1.2c.3.1.4.1.5.2.1.1.1.2.1.3l.3.1.8-3.1-.4-.1c0 .1-.1.2-.2.2s-.3 0-.6-.1l-13.1-3.3c-.2-.1-.4-.1-.5-.2-.1-.1-.1-.2-.1-.3l-.3-.1-.8 3.1.4.1c0-.1.1-.2.2-.2s.3 0 .6.1l5 1.2-3 12c-.1.2-.1.4-.2.5-.1.1-.2.1-.4 0l-.1.4 4.1 1 .1-.3zM185.5 31.4l.1-.3c-.1-.1-.2-.1-.3-.2v-.3l.2-.2c.1-.1.4-.4.8-.7.4-.4 1-.9 1.8-1.7l6.9 2.8c0 1.2.1 2 .1 2.5v1.1c0 .2 0 .3-.1.4 0 .1-.1.1-.2.1h-.3l-.1.3 3.9 1.6.1-.3c-.1 0-.2-.1-.2-.3 0-.2-.1-.4-.1-.7l-.7-14.9v-.3-.3c0-.1.1-.1.2-.1h.2l.1-.3-4.2-1.7-.1.3c.1 0 .1.1.2.2v.2c0 .1-.1.2-.2.3l-.2.2-10.3 9.9-.7.7c-.2.2-.4.2-.6.1l-.1.3 3.8 1.3zm9.4-3.5l-4.8-1.9 4.5-4.3.3 6.2zM212 29.4l5.1 3.3c.9.6 1.5 1.2 1.8 1.8.3.6.3 1.2-.1 1.8-.4.6-.8.9-1.3 1-.5.1-1.3-.2-2.2-.8l-5.5-3.6 2.2-3.5zm.2 8.1l.1 5.8v.8c0 .3 0 .5-.1.6 0 .1-.1.1-.1.1h-.1l-.2.3 4 2.6.2-.3c-.2-.1-.3-.3-.4-.4-.1-.2-.1-.4-.1-.6l-.2-6.9c1.2.6 2.3.8 3.4.6 1.1-.2 2-.8 2.7-1.9 1-1.5 1.1-2.9.4-4.2-.7-1.3-2-2.6-4-3.9l-7.4-4.8-.2.3c.2.1.3.2.3.4 0 .1-.1.3-.2.5L202.7 38c-.1.2-.2.3-.3.4-.1 0-.3 0-.5-.1l-.2.3 3.5 2.3.2-.3c-.2-.1-.2-.2-.2-.3 0-.1.1-.3.2-.5l3.1-4.7 3.7 2.4zM231.1 41.5c.1-.2.3-.3.4-.3.1 0 .3.1.5.2l.2-.3-3.5-2.9-.2.3c.2.2.4.4.4.5 0 .1-.1.3-.2.5l-8.9 10.6c-.1.2-.3.3-.4.3-.1 0-.3-.1-.6-.3l-.2.3 3.5 2.9.2-.3c-.2-.2-.3-.3-.3-.4 0-.1.1-.3.2-.5l8.9-10.6zM227.3 58.1l.3-.2c-.1-.1-.2-.2-.2-.3 0-.1 0-.2.1-.3 0 0 .1-.1.3-.1.2-.1.5-.2 1-.4s1.3-.5 2.3-.8l5.1 5.5c-.4 1.1-.8 1.9-1 2.4-.2.5-.3.8-.4 1-.1.2-.1.3-.2.3-.1.1-.1.1-.2.1s-.1-.1-.2-.1l-.3.2 2.9 3.1.3-.2c-.1-.1-.1-.2-.1-.4s.1-.4.2-.6l5.6-13.8c0-.1.1-.2.1-.3 0-.1.1-.2.1-.2.1-.1.1-.1.2-.1s.1 0 .2.1l.3-.2-3.1-3.3-.3.2c.1.1.1.1.1.2s0 .1-.1.2-.2.1-.3.2c-.1 0-.2.1-.3.1L226.1 55c-.4.1-.7.3-.9.3-.2.1-.4 0-.6-.2l-.3.2 3 2.8zm10.1.8l-3.5-3.8 5.9-2-2.4 5.8zM250.9 67.7l-3.7 14c-.1.2-.1.4-.1.5 0 .1-.1.2-.1.3h-.2c-.1 0-.1-.1-.2-.2l-.3.2 2.1 3.3.3-.2c-.1-.1-.1-.3-.1-.4 0-.1.2-.2.4-.3l11.8-7.4c.2-.1.3-.2.5-.2.1 0 .2.1.3.2l.3-.2-1.9-3.1-.3.2c.1.1.1.2.1.3 0 .1-.2.2-.4.3l-8.6 5.4 3.5-13.2c0-.2.1-.3.1-.4 0-.1.1-.2.2-.2s.1-.1.2 0c.1 0 .1.1.1.1l.3-.2-2.3-3.7-.3.2c.1.1.1.2.1.3 0 .1-.2.2-.4.3L240.5 71c-.2.1-.3.2-.5.2-.1 0-.2-.1-.3-.2l-.3.2 1.9 3 .3-.2c-.1-.1-.1-.2 0-.3 0-.1.2-.2.4-.3l8.9-5.7zM270.2 95.7l-.3.1c.1.2.1.4 0 .5-.1.1-.2.2-.4.2l-9 2.8c-2.1.7-3.3 1.8-3.7 3.4-.4 1.6-.2 3.6.6 6 .7 2.4 1.6 4.1 2.9 5.3 1.2 1.1 2.9 1.4 5 .8l9-2.8c.2-.1.4-.1.5 0 .1 0 .2.2.3.4l.3-.1-1.2-4.1-.3.1c.1.2.1.3 0 .4-.1.1-.2.2-.4.2l-9.1 2.8c-1.1.3-2 .2-2.7-.5-.7-.6-1.2-1.7-1.7-3.3-.5-1.6-.6-2.8-.4-3.7.2-.9.9-1.5 1.9-1.9l9.1-2.8c.2-.1.4-.1.5 0 .1 0 .2.1.2.3l.3-.1-1.4-4zM273 124.5l-9.7 10.8c-.1.1-.2.3-.4.4-.1.1-.2.2-.3.2-.1 0-.1 0-.2-.1s-.1-.1-.1-.2h-.4l.3 3.9h.4c0-.2 0-.3.1-.4.1-.1.2-.1.5-.1l13.8-1.2c.2 0 .4 0 .5.1.1.1.2.2.2.3h.4l-.3-3.6h-.4c0 .2 0 .3-.1.3-.1.1-.2.1-.5.1l-10.1.9 9.1-10.2.3-.3c.1-.1.2-.1.2-.2.1 0 .2 0 .2.1 0 0 .1.1.1.2h.4l-.4-4.4h-.4c0 .2 0 .3-.1.3-.1.1-.2.1-.5.1l-13.8 1.2h-.5c-.1-.1-.2-.2-.2-.3h-.4l.3 3.5h.4c0-.1 0-.2.1-.3.1-.1.2-.1.5-.1l11-1zM276.9 148.9c.2 0 .4 0 .5.1.1.1.1.3.1.5h.4l.2-4.5h-.4c0 .3-.1.5-.2.6-.1.1-.3.1-.5.1l-13.9-.5c-.2 0-.4 0-.5-.1-.1-.1-.1-.3-.1-.6h-.4l-.1 4.5h.4c0-.3.1-.4.2-.5.1-.1.3-.1.5-.1l13.8.5zM276.4 165c.3-1.9.2-3.6-.3-5.2s-1.3-2.8-2.3-3.8c-1.1-1-2.4-1.6-3.9-1.9-1.5-.2-3 0-4.3.6-1.3.6-2.5 1.6-3.4 2.9-.9 1.3-1.6 3-1.9 4.9-.3 1.9-.2 3.6.3 5.2s1.3 2.8 2.3 3.8c1.1 1 2.4 1.6 3.9 1.9 1.5.2 3 0 4.3-.6 1.3-.6 2.5-1.6 3.4-2.9s1.5-3 1.9-4.9m-2.6-.4c-.3 2-1.1 3.5-2.3 4.6-1.2 1-2.6 1.5-4.3 1.2-1.7-.3-2.9-1.1-3.7-2.5-.8-1.4-1.1-3.1-.8-5.1.3-2 1.1-3.5 2.3-4.6 1.2-1 2.6-1.5 4.3-1.2 1.7.3 2.9 1.1 3.7 2.5.9 1.4 1.1 3.1.8 5.1M267.2 183.6l-13.4 5.4c-.2.1-.3.1-.5.2-.1 0-.2.1-.3 0-.1 0-.1-.1-.1-.2v-.3l-.3-.1-1.4 3.7.3.1c.1-.2.1-.2.3-.3.1 0 .3 0 .5.1l13 5c.2.1.4.2.4.3.1.1.1.2 0 .4l.3.1 1.3-3.4-.3-.1c-.1.1-.1.2-.2.3-.1 0-.3 0-.5-.1l-9.4-3.6 12.7-5.2c.1-.1.3-.1.4-.2.1 0 .2-.1.3 0 .1 0 .1.1.1.1v.2l.3.1 1.6-4.1-.3-.1c-.1.1-.1.2-.2.3-.1 0-.3 0-.5-.1l-13-5c-.2-.1-.4-.2-.4-.3-.1-.1-.1-.2 0-.4l-.3-.1-1.3 3.3.3.1c0-.1.1-.2.2-.2s.3 0 .5.1l9.9 4z"/><path class="st1" d="M32.8 178.2l-3 1.2.1.3c.1 0 .2 0 .3.1.1.1.2.3.3.5l4 9.9-3.9 1.6-2.5-6.3c-.1-.2-.1-.4-.1-.6 0-.1.1-.2.2-.2l-.1-.3-3 1.2.1.3c.1 0 .2 0 .3.1.1.1.2.2.3.5l2.5 6.3-3.7 1.5-3.9-9.7c-.1-.3-.1-.4-.1-.6 0-.1.1-.2.2-.3l-.1-.3-3.1 1.2.1.3c.1 0 .2 0 .3.1.1.1.2.3.3.5l5.3 13.1.3-.1c-.1-.2-.1-.3 0-.4.1-.1.2-.2.4-.3l12.9-5.2c.2-.1.4-.1.5-.1.1 0 .2.1.3.3l.3-.1-5.3-13.2c-.1-.2-.1-.4-.2-.6 0-.1 0-.2.2-.3l-.2-.4zM15.7 177.4l.4-.1c-.1-.2 0-.4 0-.5.1-.1.2-.2.4-.2l9.2-2c2.1-.5 3.4-1.5 4-3.1.5-1.6.5-3.6 0-6s-1.3-4.3-2.4-5.5c-1.1-1.2-2.7-1.6-4.9-1.2l-9.2 2c-.2.1-.4 0-.5 0-.1-.1-.2-.2-.2-.4l-.4.1.9 4.1.4-.1c0-.2 0-.3.1-.4.1-.1.2-.2.4-.2l9.3-2c1.1-.2 2 0 2.6.7.6.7 1.1 1.8 1.4 3.5.4 1.6.4 2.8.1 3.7-.3.9-1 1.5-2.1 1.7l-9.3 2h-.5c-.1 0-.2-.2-.2-.3l-.4.1.9 4.1zM13.7 148.3l-.1-6c0-1.1.1-1.9.5-2.5.3-.6.8-.9 1.5-.9s1.2.1 1.6.6c.4.4.6 1.2.6 2.3l.1 6.5h-4.2zm6.7-4.8l4.8-3.3c.2-.2.4-.3.7-.5.2-.2.4-.3.6-.3.1 0 .1 0 .1.1v.1h.4l-.1-4.7h-.4c0 .2-.1.4-.2.5-.1.2-.2.3-.4.4l-5.6 4c-.2-1.3-.7-2.4-1.5-3.2-.8-.8-1.8-1.2-3-1.2-1.8 0-3 .7-3.7 2-.7 1.3-1 3.1-1 5.5l.2 8.8h.4c0-.2 0-.4.1-.5.1-.1.3-.1.5-.1l13.9-.2c.2 0 .4 0 .5.1.1.1.1.2.1.4h.4l-.1-4.2h-.4c0 .2 0 .3-.1.4-.1.1-.3.1-.5.1l-5.6.1-.1-4.3zM12.7 119.5c-.3 1.9-.2 3.6.3 5.2s1.3 2.8 2.3 3.8c1.1 1 2.4 1.6 3.9 1.9 1.5.2 3 0 4.3-.6 1.3-.6 2.5-1.6 3.4-2.9.9-1.3 1.6-3 1.9-4.9.3-1.9.2-3.6-.3-5.2s-1.3-2.8-2.3-3.8c-1.1-1-2.4-1.6-3.9-1.9-1.5-.2-3 0-4.3.6-1.3.6-2.5 1.6-3.4 2.9-1 1.4-1.6 3-1.9 4.9m2.5.4c.3-2 1.1-3.5 2.3-4.6 1.2-1 2.6-1.5 4.3-1.2 1.7.3 2.9 1.1 3.7 2.5.8 1.4 1.1 3.1.8 5.1-.3 2-1.1 3.5-2.3 4.6-1.2 1-2.6 1.5-4.3 1.2-1.7-.3-2.9-1.1-3.7-2.5-.8-1.4-1.1-3.1-.8-5.1M28.7 96.4c.6-1.8.6-3.2.1-4.2s-1.4-1.8-2.7-2.2c-1.5-.5-2.8-.5-3.8.2-1 .6-1.8 1.8-2.4 3.4l-3.3 9.6.3.1c.1-.2.2-.3.3-.4.1 0 .3 0 .5.1l13.1 4.5.4.2c.1.1.1.2 0 .4l.3.1 1.4-4-.3-.1c-.1.2-.1.3-.3.3-.1 0-.3 0-.5-.1l-5.4-1.8 2.3-6.1zm-8.5 4.2l2-5.7c.3-.9.7-1.6 1.1-1.8.4-.3 1-.3 1.7 0 .7.2 1.2.6 1.4 1.1.2.5.1 1.2-.3 2.1l-2 5.7-3.9-1.4zM46.5 76.9l-2.8-1.6-.2.3c.1.1.2.2.1.3 0 .1-.1.3-.2.5l-5.2 9.3-3.7-2 3.3-5.9c.1-.2.3-.4.4-.4.1-.1.2-.1.3 0l.2-.3-2.9-1.6-.2.3c.1.1.2.1.2.3 0 .1-.1.3-.2.5l-3.3 5.9-3.5-1.9 5.1-9.1c.1-.2.3-.4.4-.4.1-.1.3-.1.4 0l.2-.3L32 69l-.2.3c.1 0 .1.1.1.3 0 .1-.1.3-.2.6l-6.8 12.3.3.2c.1-.2.2-.3.3-.3.1 0 .3 0 .5.2l12.1 6.7c.2.1.3.2.4.3.1.1 0 .2-.1.4l.3.2 6.9-12.5c.1-.2.2-.4.3-.5.1-.1.2-.1.3 0l.3-.3zM50.3 71.4l-.3-.2c-.1.1-.2.2-.3.2-.1 0-.2 0-.3-.1 0 0-.1-.1-.2-.3-.1-.2-.2-.5-.5-.9-.2-.5-.6-1.2-1.1-2.2l4.7-5.8c1.1.3 1.9.5 2.5.6.5.1.9.2 1 .3.2.1.3.1.3.2.1.1.1.1.1.2s0 .1-.1.2l.3.2 2.7-3.3-.3-.2c-.1.1-.2.1-.4.1s-.4 0-.7-.1l-14.4-3.7c-.1 0-.2-.1-.3-.1-.1 0-.2-.1-.3-.1-.1-.1-.1-.1-.1-.2s0-.1.1-.2l-.3-.2-2.9 3.5.3.2c.1-.1.1-.1.2-.1h.2l.2.2c0 .1.1.2.1.3L47 72.7c.2.4.3.6.4.9.1.2.1.4-.1.6l.3.2 2.7-3zm-.7-10l-3.3 4-2.8-5.6 6.1 1.6zM56.5 46.8l14.4 1.8c.2 0 .4 0 .5.1.1 0 .2.1.3.1 0 .1.1.1.1.2s-.1.1-.1.2l.2.3 3-2.5-.2-.3c-.1.1-.2.1-.4.1-.1 0-.2-.1-.4-.3L65 35.9c-.1-.2-.2-.3-.2-.4 0-.1 0-.2.2-.3l-.2-.3-2.8 2.3.2.3c.1-.1.2-.1.3-.1.1 0 .2.1.4.3l6.5 7.8-13.6-1.6h-.4c-.1 0-.2 0-.3-.1-.1-.3-.1-.4-.1-.4 0-.1.1-.1.1-.2l-.2-.3-3.4 2.8.2.3c.1-.1.2-.1.3-.1.1 0 .2.1.4.3l8.9 10.6c.1.2.2.3.2.4 0 .1 0 .2-.2.3l.2.3 2.7-2.3-.2-.3c-.1.1-.2.1-.3.1-.1 0-.2-.1-.4-.3l-6.8-8.2zM92.5 18.8l.2.3c.1 0 .2-.1.3-.1.1 0 .2 0 .2.1s.1.6.1 1.3c0 .8 0 1.6.1 2.5l.2 8.5L87 26c-1-.8-1.7-1.4-2.2-1.8-.5-.4-.8-.6-.8-.7v-.2l.2-.2-.2-.3-4.1 1.9.2.3c.3-.1.5-.1.6 0 .2.1.3.2.4.4L92.4 35c.1.1.2.2.3.2l.2.2v.2c0 .1-.1.1-.2.2l.2.3 3.9-1.8-.2-.3c-.1 0-.2.1-.3.1-.1 0-.1 0-.2-.1 0-.1-.1-.2-.1-.3v-.3l-.4-14.7c0-.2 0-.5.1-.7.1-.2.2-.3.3-.4l-.2-.3-3.3 1.5zM121.1 26.6l-.8-3.1-.3.1c0 .1 0 .2-.1.3-.1.1-.3.2-.5.2L109 26.9l-1.1-4.1 6.6-1.8c.2-.1.4-.1.6 0 .1 0 .2.1.2.2l.3-.1-.8-3.2-.3.1c0 .1 0 .2-.1.3-.1.1-.3.2-.5.2l-6.6 1.8-1-3.9 10.1-2.7c.3-.1.5-.1.6 0 .1.1.2.1.3.3l.3-.1-.9-3.2-.3.1c0 .1 0 .2-.1.3-.1.1-.3.2-.5.2L102.1 15l.1.3c.2-.1.3 0 .4 0 .1.1.2.2.2.4l3.6 13.4c.1.2.1.4 0 .5 0 .1-.1.2-.3.2l.1.3 13.8-3.7c.2-.1.4-.1.6-.1.1 0 .2.1.2.2l.3.1zM138.3 21c-.3.2-.9.5-1.7.8-.8.3-1.7.5-2.7.6-2 .2-3.6-.2-5-1-1.3-.8-2.1-2.2-2.3-4-.1-1.2.1-2.3.6-3.1.5-.9 1.2-1.6 2.2-2.1.9-.5 2-.8 3.1-.9 1.1-.1 2.1 0 2.9.2.8.2 1.5.4 1.9.7.5.3.7.4.7.6V13.1l.3.2 1.6-3.6-.4-.1c-.1.1-.2.1-.3.2-.1 0-.3-.1-.7-.2-.4-.1-.8-.2-1.3-.4-.6-.1-1.2-.2-2-.3-.8-.1-1.7-.1-2.7 0-1.8.2-3.4.6-4.8 1.4-1.4.8-2.4 1.8-3.2 3.1-.7 1.3-1 2.8-.9 4.6.2 1.9.7 3.3 1.6 4.5.9 1.1 2.1 1.9 3.6 2.4s3.1.6 4.9.5c1.6-.1 3.1-.5 4.5-1s2.5-1.3 3.5-2.1v-.4c-.1 0-.2-.1-.2-.2-.1-.1-.1-.2-.1-.3l-.4-4.3v-.4c0-.1.1-.1.2-.2v-.4l-7.1.6c-.2 0-.4 0-.5-.1-.1-.1-.2-.1-.2-.3h-.4l.3 3.4h.4c0-.1 0-.2.2-.3.1-.1.3-.2.5-.2l3.8-.3.1 2.1zM161.7 25.6l.3-3.2h-.4c0 .1-.1.2-.2.3-.1.1-.3.1-.6 0l-10.6-.9.4-4.2 6.8.6c.3 0 .4.1.5.2.1.1.2.2.1.3h.4l.3-3.3h-.4c0 .1-.1.2-.2.3-.1.1-.3.1-.6 0l-6.8-.6.3-4 10.4.9c.3 0 .5.1.6.2.1.1.2.2.1.3h.4l.3-3.3h-.4c0 .1-.1.2-.2.2s-.3.1-.6 0l-14-1.2v.4c.2 0 .3.1.4.2.1.1.1.3 0 .5L147 23c0 .2-.1.4-.1.5-.1.1-.2.1-.4.1v.4l14.2 1.2c.3 0 .4.1.6.1.1.1.2.1.2.3h.2zM174.9 27.8c-.2 0-.3-.1-.4-.2v-.5l3-12 5 1.2c.3.1.4.1.5.2.1.1.1.2.1.3l.3.1.8-3.1-.4-.1c0 .1-.1.2-.2.2s-.3 0-.6-.1l-13.1-3.3c-.2-.1-.4-.1-.5-.2-.1-.1-.1-.2-.1-.3l-.3-.1-.8 3.1.4.1c0-.1.1-.2.2-.2s.3 0 .6.1l5 1.2-3 12c-.1.2-.1.4-.2.5-.1.1-.2.1-.4 0l-.1.4 4.1 1 .1-.3zM185.5 31.4l.1-.3c-.1-.1-.2-.1-.3-.2v-.3l.2-.2c.1-.1.4-.4.8-.7.4-.4 1-.9 1.8-1.7l6.9 2.8c0 1.2.1 2 .1 2.5v1.1c0 .2 0 .3-.1.4 0 .1-.1.1-.2.1h-.3l-.1.3 3.9 1.6.1-.3c-.1 0-.2-.1-.2-.3 0-.2-.1-.4-.1-.7l-.7-14.9v-.3-.3c0-.1.1-.1.2-.1h.2l.1-.3-4.2-1.7-.1.3c.1 0 .1.1.2.2v.2c0 .1-.1.2-.2.3l-.2.2-10.3 9.9-.7.7c-.2.2-.4.2-.6.1l-.1.3 3.8 1.3zm9.4-3.5l-4.8-1.9 4.5-4.3.3 6.2zM212 29.4l5.1 3.3c.9.6 1.5 1.2 1.8 1.8.3.6.3 1.2-.1 1.8-.4.6-.8.9-1.3 1-.5.1-1.3-.2-2.2-.8l-5.5-3.6 2.2-3.5zm.2 8.1l.1 5.8v.8c0 .3 0 .5-.1.6 0 .1-.1.1-.1.1h-.1l-.2.3 4 2.6.2-.3c-.2-.1-.3-.3-.4-.4-.1-.2-.1-.4-.1-.6l-.2-6.9c1.2.6 2.3.8 3.4.6 1.1-.2 2-.8 2.7-1.9 1-1.5 1.1-2.9.4-4.2-.7-1.3-2-2.6-4-3.9l-7.4-4.8-.2.3c.2.1.3.2.3.4 0 .1-.1.3-.2.5L202.7 38c-.1.2-.2.3-.3.4-.1 0-.3 0-.5-.1l-.2.3 3.5 2.3.2-.3c-.2-.1-.2-.2-.2-.3 0-.1.1-.3.2-.5l3.1-4.7 3.7 2.4zM231.1 41.5c.1-.2.3-.3.4-.3.1 0 .3.1.5.2l.2-.3-3.5-2.9-.2.3c.2.2.4.4.4.5 0 .1-.1.3-.2.5l-8.9 10.6c-.1.2-.3.3-.4.3-.1 0-.3-.1-.6-.3l-.2.3 3.5 2.9.2-.3c-.2-.2-.3-.3-.3-.4 0-.1.1-.3.2-.5l8.9-10.6zM227.3 58.1l.3-.2c-.1-.1-.2-.2-.2-.3 0-.1 0-.2.1-.3 0 0 .1-.1.3-.1.2-.1.5-.2 1-.4s1.3-.5 2.3-.8l5.1 5.5c-.4 1.1-.8 1.9-1 2.4-.2.5-.3.8-.4 1-.1.2-.1.3-.2.3-.1.1-.1.1-.2.1s-.1-.1-.2-.1l-.3.2 2.9 3.1.3-.2c-.1-.1-.1-.2-.1-.4s.1-.4.2-.6l5.6-13.8c0-.1.1-.2.1-.3 0-.1.1-.2.1-.2.1-.1.1-.1.2-.1s.1 0 .2.1l.3-.2-3.1-3.3-.3.2c.1.1.1.1.1.2s0 .1-.1.2-.2.1-.3.2c-.1 0-.2.1-.3.1L226.1 55c-.4.1-.7.3-.9.3-.2.1-.4 0-.6-.2l-.3.2 3 2.8zm10.1.8l-3.5-3.8 5.9-2-2.4 5.8zM250.9 67.7l-3.7 14c-.1.2-.1.4-.1.5 0 .1-.1.2-.1.3h-.2c-.1 0-.1-.1-.2-.2l-.3.2 2.1 3.3.3-.2c-.1-.1-.1-.3-.1-.4 0-.1.2-.2.4-.3l11.8-7.4c.2-.1.3-.2.5-.2.1 0 .2.1.3.2l.3-.2-1.9-3.1-.3.2c.1.1.1.2.1.3 0 .1-.2.2-.4.3l-8.6 5.4 3.5-13.2c0-.2.1-.3.1-.4 0-.1.1-.2.2-.2s.1-.1.2 0c.1 0 .1.1.1.1l.3-.2-2.3-3.7-.3.2c.1.1.1.2.1.3 0 .1-.2.2-.4.3L240.5 71c-.2.1-.3.2-.5.2-.1 0-.2-.1-.3-.2l-.3.2 1.9 3 .3-.2c-.1-.1-.1-.2 0-.3 0-.1.2-.2.4-.3l8.9-5.7zM270.2 95.7l-.3.1c.1.2.1.4 0 .5-.1.1-.2.2-.4.2l-9 2.8c-2.1.7-3.3 1.8-3.7 3.4-.4 1.6-.2 3.6.6 6 .7 2.4 1.6 4.1 2.9 5.3 1.2 1.1 2.9 1.4 5 .8l9-2.8c.2-.1.4-.1.5 0 .1 0 .2.2.3.4l.3-.1-1.2-4.1-.3.1c.1.2.1.3 0 .4-.1.1-.2.2-.4.2l-9.1 2.8c-1.1.3-2 .2-2.7-.5-.7-.6-1.2-1.7-1.7-3.3-.5-1.6-.6-2.8-.4-3.7.2-.9.9-1.5 1.9-1.9l9.1-2.8c.2-.1.4-.1.5 0 .1 0 .2.1.2.3l.3-.1-1.4-4zM273 124.5l-9.7 10.8c-.1.1-.2.3-.4.4-.1.1-.2.2-.3.2-.1 0-.1 0-.2-.1s-.1-.1-.1-.2h-.4l.3 3.9h.4c0-.2 0-.3.1-.4.1-.1.2-.1.5-.1l13.8-1.2c.2 0 .4 0 .5.1.1.1.2.2.2.3h.4l-.3-3.6h-.4c0 .2 0 .3-.1.3-.1.1-.2.1-.5.1l-10.1.9 9.1-10.2.3-.3c.1-.1.2-.1.2-.2.1 0 .2 0 .2.1 0 0 .1.1.1.2h.4l-.4-4.4h-.4c0 .2 0 .3-.1.3-.1.1-.2.1-.5.1l-13.8 1.2h-.5c-.1-.1-.2-.2-.2-.3h-.4l.3 3.5h.4c0-.1 0-.2.1-.3.1-.1.2-.1.5-.1l11-1zM276.9 148.9c.2 0 .4 0 .5.1.1.1.1.3.1.5h.4l.2-4.5h-.4c0 .3-.1.5-.2.6-.1.1-.3.1-.5.1l-13.9-.5c-.2 0-.4 0-.5-.1-.1-.1-.1-.3-.1-.6h-.4l-.1 4.5h.4c0-.3.1-.4.2-.5.1-.1.3-.1.5-.1l13.8.5zM276.4 165c.3-1.9.2-3.6-.3-5.2s-1.3-2.8-2.3-3.8c-1.1-1-2.4-1.6-3.9-1.9-1.5-.2-3 0-4.3.6-1.3.6-2.5 1.6-3.4 2.9-.9 1.3-1.6 3-1.9 4.9-.3 1.9-.2 3.6.3 5.2s1.3 2.8 2.3 3.8c1.1 1 2.4 1.6 3.9 1.9 1.5.2 3 0 4.3-.6 1.3-.6 2.5-1.6 3.4-2.9s1.5-3 1.9-4.9m-2.6-.4c-.3 2-1.1 3.5-2.3 4.6-1.2 1-2.6 1.5-4.3 1.2-1.7-.3-2.9-1.1-3.7-2.5-.8-1.4-1.1-3.1-.8-5.1.3-2 1.1-3.5 2.3-4.6 1.2-1 2.6-1.5 4.3-1.2 1.7.3 2.9 1.1 3.7 2.5.9 1.4 1.1 3.1.8 5.1M267.2 183.6l-13.4 5.4c-.2.1-.3.1-.5.2-.1 0-.2.1-.3 0-.1 0-.1-.1-.1-.2v-.3l-.3-.1-1.4 3.7.3.1c.1-.2.1-.2.3-.3.1 0 .3 0 .5.1l13 5c.2.1.4.2.4.3.1.1.1.2 0 .4l.3.1 1.3-3.4-.3-.1c-.1.1-.1.2-.2.3-.1 0-.3 0-.5-.1l-9.4-3.6 12.7-5.2c.1-.1.3-.1.4-.2.1 0 .2-.1.3 0 .1 0 .1.1.1.1v.2l.3.1 1.6-4.1-.3-.1c-.1.1-.1.2-.2.3-.1 0-.3 0-.5-.1l-13-5c-.2-.1-.4-.2-.4-.3-.1-.1-.1-.2 0-.4l-.3-.1-1.3 3.3.3.1c0-.1.1-.2.2-.2s.3 0 .5.1l9.9 4zM41.2 207.9c2 0 3.5 1.6 3.5 3.5 0 2-1.6 3.5-3.5 3.5s-3.5-1.6-3.5-3.5c-.1-1.9 1.5-3.5 3.5-3.5M247.7 207.8c2 0 3.5 1.6 3.5 3.5 0 2-1.6 3.5-3.5 3.5-2 0-3.5-1.6-3.5-3.5s1.6-3.5 3.5-3.5"/><g class="st2"><path class="st3" d="M58.9 220.7l5.4 4.9-.3.4c-.2-.2-.7-.7-1-.4-.3.3-3.6 8.6-4.2 9.7l.1.1c3.2-1.5 9.5-4.3 9.7-4.6.3-.3-.2-.7-.4-.9l.3-.3 4.7 4.4-.3.3c-.3-.3-.6-.4-1-.1-1.5.9-14.4 6.8-14.6 7-.3.3-.1.8.2 1l-.3.3-6-5.5.3-.3c.2.3.7.4 1 .1.1-.1 6.6-14.4 6.4-15-.1-.4-.2-.5-.4-.6l.4-.5z"/></g><g class="st2"><path class="st3" d="M68 243.3l2.6-3.8 8.3 5.8-2.6 3.8-8.3-5.8z"/></g><g class="st2"><path class="st3" d="M84.8 243c.2-.5-.1-.8-.6-1.1l.2-.4 6.4 3.3-.2.4c-.5-.2-1-.3-1.2.2L84 256l9.4 4.8c.3.1.7.2 1.1-.6l.4.2-2.7 5.3-.4-.2c.4-.7.1-1-.2-1.2l-15-7.6.2-.4c.5.2 1 .3 1.2-.2l6.8-13.1z"/></g><g class="st2"><path class="st3" d="M111.5 271l.1-.4c.1 0 .5.1.6-.2.1-.4-.3-2.1-.3-2.9l-8.6-2.5c-.4.6-1.7 1.8-1.8 2.2-.1.3.2.4.4.5l-.1.4-5.6-1.6.1-.4c.3.1.7.1.9-.2 5-6.1 10.6-12.4 10.7-12.9.1-.3 0-.4-.4-.5l.1-.4 7.7 2.3-.1.4c-.4-.1-.5 0-.6.2-.1.4 2 12.5 2.5 16.8 0 .3.3.5.6.6l-.1.4-6.1-1.8zm-.1-6.6l-1.2-7.5-5 5.7 6.2 1.8z"/></g><g class="st2"><path class="st3" d="M125.9 257.9c.1-.5-.4-.7-1.2-.8v-.5l11.6 1.1c4.6.4 6.4 1.4 6.1 4.8-.2 1.6-1.4 3-2.9 3.5 2 .9 2.9 2.2 2.7 4.4-.3 3-2.5 4.8-7.3 4.3l-11.7-1.1v-.5c.8 0 1.2 0 1.3-.6l1.4-14.6zm4 13.1l4.2.4c1.8.2 3.2-.2 3.4-1.8.2-2.1-1.5-2.3-3-2.4l-4.2-.4-.4 4.2zm.7-6.8l4.6.4c2 .2 2.6-.6 2.7-1.6.1-1.6-.7-1.9-2.4-2.1l-4.6-.4-.3 3.7z"/></g><g class="st2"><path class="st3" d="M164.1 270.4c.5 0 .8-.3.9-1.1h.5l.4 5.2h-.4c-.3-.7-.5-.8-1.1-.7l-17.2 1.5v-.5c.5-.1 1.1-.2 1-.8l-1.3-14.8c0-.5-.6-.6-1.1-.6v-.5l17.5-1.5c.3 0 .7-.2.6-.9h.5l.4 5.2h-.5c-.1-.8-.5-.9-.8-.9l-11.2 1 .3 3.1 7.2-.6c.3 0 .7-.2.6-1h.5l.4 5.1h-.5c-.1-.7-.5-.9-.8-.8l-7.2.6.3 3.8 11-.8z"/></g><g class="st2"><path class="st3" d="M168.5 256.9c-.1-.5-.6-.5-1.2-.4l-.1-.5 7-1.9.1.5c-.5.2-.9.4-.8.9l3.1 11.6 10.2-2.7c.3-.1.6-.3.4-1.1l.4-.1 1.5 5.7-.4.1c-.2-.8-.6-.8-.9-.8l-16.2 4.3-.1-.5c.5-.2 1-.4.8-.9l-3.8-14.2z"/></g><g class="st2"><path class="st3" d="M198.2 261c.6 1.5-.1 3.4-1.6 4-1.5.6-3.4-.1-4-1.7-.6-1.5.1-3.4 1.6-4 1.5-.6 3.3.2 4 1.7z"/></g><g class="st2"><path class="st3" d="M218 249.5c.4-.2.6-.7.4-1.4l.4-.2 2.7 4.5-.3.2c-.6-.5-.8-.5-1.3-.2l-14.8 8.8-.2-.4c.4-.3.9-.7.6-1.2l-7.6-12.7c-.3-.5-.8-.3-1.3 0l-.2-.4 15.1-9c.3-.2.5-.5.2-1.1l.4-.2 2.7 4.5-.4.2c-.4-.7-.8-.6-1.1-.4l-9.7 5.8 1.6 2.7 6.2-3.7c.3-.2.5-.5.1-1.1l.4-.2 2.6 4.4-.4.2c-.4-.6-.8-.6-1.1-.4l-6.2 3.7 2 3.3 9.2-5.7z"/></g><g class="st2"><path class="st3" d="M216.3 235.5c-.4-.4-.8-.2-1.3.2l-.3-.3 5.2-4.7.3.3c-.1.2-.4.6 0 1l6.3 7c1.3 1.5 3.1 1 4.7-.5 1.7-1.5 2.3-3.2 1-4.6l-6.3-7c-.4-.4-.8-.2-1-.1l-.3-.3 5.2-4.7.3.3c-.4.4-.7.9-.4 1.3l5.7 6.4c2.8 3.1 3.4 7.2-1.6 11.7-5.1 4.5-9.1 3.4-11.8.4l-5.7-6.4z"/></g><g class="st2"><path class="st3" d="M161.4 226.2c5.6 0 10 4.4 10 9.8 0 5.6-4.4 9.9-10.1 9.9-5.6 0-10.1-4.3-10.1-9.9 0-5.4 4.6-9.8 10.2-9.8zm-.1 2c-4.3 0-7.6 3.5-7.6 7.9s3.2 7.9 7.7 7.9c4.3.1 7.5-3.5 7.5-7.9s-3.1-7.9-7.6-7.9zm-1.5 13h-2.3v-9.8c.9-.2 2.2-.4 3.8-.4 1.9 0 2.7.3 3.4.8.5.4 1 1.2 1 2.1 0 1.1-.8 2-2 2.3v.1c1 .3 1.5 1.1 1.8 2.4.3 1.5.5 2.1.7 2.4h-2.5c-.3-.4-.5-1.2-.8-2.3-.2-1.1-.8-1.6-2-1.6h-1.1v4zm.1-5.6h1.1c1.3 0 2.3-.4 2.3-1.4 0-.9-.7-1.5-2.1-1.5-.6 0-1 .1-1.3.1v2.8z"/></g><path class="st0" d="M0 293.1h283.5v59.7H0z"/><g class="st2"><path class="st3" d="M19.4 344.3v-1c1-.2 1.2-.4 1.2-.7 0-.7-14.2-32.7-15.9-36.8-.7-1.7-1-2.1-1.8-2.2v-1h16.2v1c-1.3.1-1.6.4-1.6 1s1.2 2.5 11.1 24.1c9.4-20.9 10.7-23.2 10.7-24.2 0-.6-.2-.8-1.2-.9v-1h13.6v1c-.6.2-1 .3-1.2 1-.8 2.5-15.9 36.8-15.9 37.9 0 .4.4.7 1.1.7v1H19.4zM92.3 329.1h-1c-.2-1-.8-1.8-2.4-1.8H74.2v7.4h25.4c.9 0 1.2-.4 1.4-2.4h1V346h-1c-.2-1.3-.6-1.7-1.4-1.7H60.1v-1c2-.2 2.2-.7 2.2-1.4V305c0-.7-.2-1.3-2.2-1.4v-1h39.5c.9 0 1.2-.4 1.4-2.2h1v13.8h-1c-.2-1.8-.6-2.2-1.4-2.2H74.2v6.6H89c1.6 0 2.1-.8 2.4-1.8h1v12.3zM147.9 329.1h-10.2c-.9 0-1.1.6-1.2 1.6h-1v-11.1h1c.1 1 .3 1.4 1.2 1.4H161v1c-1 .1-1.3.5-1.3 1.3v13.1c0 .7.2 1.3 1 1.3h.4v1c-7.1 4-15.8 5.9-25.5 5.9-13.2 0-25.7-7-25.7-21.3s12.5-21.3 25.7-21.3c5.2 0 7.5.4 12.9 1.9 2.6.7 5.1 2.1 5.8 2.1.5 0 .9-.3 1.1-.6l1 .3-5.1 10.5-1-.6c.1-.2.2-.5.2-.9 0-1.5-7.8-3.8-14.4-3.8-7.5 0-14.4 4-14.4 12.6s8.3 12.3 15.2 12.3c4.4 0 7.8-.6 11.1-1.5v-5.2zM182.1 335.2c-2.1 5.8-2.5 6.8-2.5 7.3s.3.8 1.4.8v1h-14v-1c1.1-.2 1.6-.6 2.1-1.8.7-1.8 14.1-36.7 14.1-37.1 0-.6-.9-.7-1.6-.8v-1h20.7v1c-.9.1-1.4.2-1.4 1 0 .6 9.7 24.3 14.7 36.3.8 1.9 1.3 2.4 2.2 2.4v1h-15.6v-1c1.1-.1 1.5-.5 1.5-1 0-.3-2.4-6.1-2.7-7.1h-18.9zm2-6.3h14.7l-7.7-18.8-7 18.8zM229.5 305c0-.7-.2-1.3-2.2-1.4v-1h19.1v1c-1.8.1-2.2.6-2.2 1 0 .9 13.7 15.4 19.2 21.5V305c0-1-.6-1.3-1.7-1.4v-1h14.5v1c-2 .2-2.2.7-2.2 1.4v36.9c0 .7.2 1.3 2.2 1.4v1h-15v-1c1.4 0 1.8-.3 1.8-.9 0-1-2-2.1-22.9-25.4v24.9c0 .7.2 1.3 2.2 1.4v1h-15v-1c2-.2 2.2-.7 2.2-1.4V305z"/></g></svg>