<svg version="1.1" id="Calque_1" xmlns="http://www.w3.org/2000/svg" x="0" y="0" viewBox="0 0 213.4 276.4" xml:space="preserve"><style>.st0{fill:#5a5a59}.st1{fill:#005497}.st2{fill:#fff}.st3{fill:#e63027}</style><path class="st0" d="M212.3 86.9c-1 1.6-2.4 2.5-4.2 2.9-1.8.4-3.5.1-5.1-.9-1.5-1-2.5-2.4-2.9-4.3-.4-1.8-.1-3.5.9-5s2.4-2.5 4.2-2.9c1.8-.4 3.5-.1 5.1.9 1.6 1 2.5 2.4 2.9 4.2.4 1.9.1 3.6-.9 5.1zm-10.5-6.8c-.9 1.3-1.1 2.8-.8 4.3.3 1.6 1.2 2.8 2.5 3.7 1.3.9 2.8 1.1 4.4.8 1.6-.3 2.8-1.2 3.6-2.5.9-1.3 1.1-2.8.8-4.4-.3-1.6-1.2-2.8-2.5-3.6-1.3-.9-2.8-1.1-4.3-.8-1.6.3-2.8 1.2-3.7 2.5zm4-.4c.9-.2 1.6-.2 2-.2.8.2 1.3.7 1.5 1.6.1.6 0 1.2-.4 1.6-.2.2-.5.4-1 .6.6 0 1 .1 1.4.4.3.3.6.7.6 1l.1.5c0 .2.1.3.1.5.1.2.1.3.1.4l.1.1-1.2.3v-.1-.1l-.1-.2-.1-.6c-.2-.8-.5-1.3-1-1.5-.3-.1-.8-.1-1.5.1l-1 .2.6 2.8-1.3.3-1.5-7.2 2.6-.5zm1.6.8c-.4-.1-.9-.1-1.6.1l-1.1.2.6 2.6 1.1-.2c.5-.1.9-.3 1.2-.4.5-.3.6-.7.5-1.3-.1-.6-.4-.9-.7-1zM41.9 73.9c1.9 1.1 3 2.6 3.4 4.7.4 2.1 0 4.2-1.3 6.3-1.2 2.1-2.8 3.5-4.8 4.2-2 .7-3.9.5-5.8-.6s-3-2.6-3.4-4.7c-.4-2.1 0-4.1 1.2-6.2 1.2-2.1 2.8-3.5 4.8-4.2 2.1-.8 4-.6 5.9.5zm-1.8 3.2c-1.9-1.1-3.5-1.6-4.9-1.5-1.4.1-2.5.8-3.2 2.2-.8 1.3-.9 2.6-.3 3.9.6 1.3 1.8 2.4 3.7 3.5 1.8 1 3.3 1.5 4.7 1.3 1.4-.1 2.5-.8 3.2-2.2.7-1.3.8-2.6.3-3.9-.6-1.1-1.7-2.3-3.5-3.3zM52.6 71.9l-.3-.3c.9-.9 1-1.8.3-2.6l-6.2-7.2c-.4-.5-.8-.8-1.2-.8-.4 0-.9.2-1.5.6l-.3-.3 5.5-4.8c1.5-1.3 2.8-2 4-2.2 1.2-.2 2.1.1 2.9.9.5.6.8 1.3.7 2.1 0 .8-.3 1.6-.9 2.5.3-.2.8-.2 1.4-.2.6.1 1.7.4 3.2.9 1.5.5 2.4.7 2.9.8.5 0 1-.1 1.5-.5l.3.3-3.4 2.9c-.9-.1-2.2-.5-3.9-1.1-1.2-.4-2.1-.7-2.5-.8-.5-.1-.9-.1-1.2 0-.3.1-.9.5-1.6 1.1l2.8 3.3c.4.5.8.7 1.2.7.4 0 .9-.2 1.5-.6l.3.3-5.5 5zm-3.8-14.2l-.8.7 3.8 4.3c.2-.2.4-.3.6-.5.9-.8 1.4-1.6 1.6-2.3.1-.7-.2-1.5-.9-2.3-1.3-1.3-2.7-1.3-4.3.1zM71.7 42.1l.2.4c-.6.5-1 .9-1.1 1.2-.1.3 0 .9.3 1.6l3.9 8.1c.3.6.6.9.9 1 .3.1.9.1 1.7-.1l.2.4-6.6 3.1-.2-.4c.4-.3.8-.6.9-.9.2-.3.3-.5.3-.8 0-.2-.1-.7-.4-1.2L68 46.4c-.3-.6-.6-.9-.9-1-.3-.1-.9-.1-1.7.1l-.2-.4 6.5-3zM96.8 35.6l.7 3.9H97c-.6-1-1.5-1.7-2.5-2.1-1.1-.5-2.1-.6-3.3-.4-1.5.3-2.6 1.1-3.3 2.4-.6 1.3-.8 3.1-.4 5.3.4 2 1 3.4 2.1 4.3 1 .9 2.3 1.2 3.9.9 1.5-.3 2.2-.9 2-1.9l-.4-2c-.2-.9-.8-1.4-1.9-1.4l-.1-.4 6.4-1.1.1.4c-.5.2-.9.5-1 .9-.2.3-.2.8-.1 1.5l.5 2.9c-1.4.9-3.3 1.6-5.7 2-1.6.3-3.1.2-4.4-.2-1.4-.4-2.5-1.1-3.4-2.1-.9-1-1.5-2.2-1.7-3.5-.4-2.1.1-4 1.4-5.7 1.3-1.7 3.2-2.7 5.5-3.1.9-.2 2-.2 3.2 0 .6.1 1.1.1 1.3.1.4-.1.7-.3 1-.7h.6zM116.6 36.2v.4c-.8.1-1.3.2-1.6.5-.3.2-.5.8-.6 1.6l-.9 8.9c-.1.6 0 1.1.2 1.4.2.3.7.5 1.5.8v.4l-7.3-.7v-.4c.6-.1 1-.2 1.3-.3.3-.1.5-.3.6-.5.1-.2.2-.6.3-1.3l.9-8.9c.1-.6 0-1.1-.2-1.4-.2-.3-.7-.5-1.5-.8v-.4l7.3.7zM138.2 42.6l.1-.4 4.9 1.9-.1.4c-1.4-.5-2.4 0-2.9 1.3L136 56.5l-.5-.2-6.3-14.6-3.1 8c-.3.7-.3 1.2-.1 1.6.2.4.7.8 1.5 1.3l-.1.4-5-1.9.1-.4c.7.2 1.3.1 1.7-.1.4-.2.8-.7 1-1.3l3.4-8.9c-.4-.7-.6-1.2-.8-1.5l-.6-.6.2-.4 4.3 1.7 5 12 2.3-5.9c.3-.9.4-1.5.3-1.9-.1-.4-.5-.8-1.1-1.2zM157.5 59.9l.4.3-2.7 3.4-.4-.3c.6-1.1.4-2-.6-2.7l-2.1-1.7-2.5 3.2c-.4.5-.5.9-.4 1.3.1.4.4.8 1 1.3l.7.6c1.2.9 2.6.9 4.2-.1l.4.3-2.3 2.5-9.3-7.2.3-.3c.7.4 1.2.5 1.6.4.4-.1.8-.4 1.3-1l5.5-7.1c.4-.5.6-1 .5-1.3-.1-.4-.3-.8-.9-1.4l.2-.3 9.1 7.1-1.9 2.5-.4-.3c.4-.9.5-1.6.4-2-.1-.5-.5-1-1.2-1.5l-2.4-1.8-3.6 4.6 2.1 1.7c.5.4.9.6 1.4.6.6-.2 1.1-.4 1.6-.8z"/><g><path class="st0" d="M59.5 175.1l-2.8 2.8-.3-.3c.4-1.1.5-2.2.3-3.3-.2-1.1-.8-2.1-1.6-2.9-1.1-1.1-2.4-1.5-3.8-1.3-1.5.3-3 1.2-4.5 2.7-1.4 1.4-2.2 2.8-2.4 4.2-.1 1.4.3 2.6 1.5 3.7 1.1 1.1 2 1.3 2.7.6l1.5-1.5c.7-.7.7-1.5.1-2.3l.3-.3 4.6 4.6-.3.3c-.5-.3-.9-.4-1.3-.4-.4.1-.8.3-1.2.8l-2.1 2.1c-1.6-.6-3.2-1.8-4.9-3.5-1.2-1.2-2-2.4-2.4-3.7-.5-1.3-.5-2.6-.2-4 .3-1.3.9-2.4 1.9-3.4 1.5-1.5 3.3-2.2 5.5-2.1 2.1.1 4 1 5.8 2.7.7.7 1.3 1.5 1.8 2.6.3.6.5.9.7 1.1.3.3.7.4 1.1.4v.4zM66.5 196l.2-.4c.6.2 1.1.3 1.4.3.3 0 .5-.2.7-.4.1-.2.2-.6.2-1.1l.2-2.3-4.9-2.5-1.5 1.3c-.4.3-.7.6-.8.9-.3.5 0 1.2.8 1.9l-.2.4-4.4-2.3.2-.4c.6.2 1.2.2 1.8 0 .6-.2 1.4-.7 2.3-1.5l8.9-7.5 1.9 1-1 12.1c-.1 1.1 0 1.9.2 2.4s.6 1 1.1 1.3l-.2.4-6.9-3.6zm-1.4-7.2l4.1 2.1.5-6.1-4.6 4zM82 202.4l.1-.4c1.3.1 2-.3 2.2-1.4l1.7-9.3c.1-.6.1-1.1-.2-1.4-.2-.3-.7-.6-1.4-.8l.1-.4 7.2 1.3c1.9.3 3.3.9 4.2 1.7.9.8 1.3 1.7 1.1 2.8-.1.8-.5 1.4-1.2 1.9-.6.5-1.5.8-2.5.8.3.1.7.5 1 1 .3.5.8 1.5 1.3 3 .5 1.4.9 2.4 1.2 2.8.3.4.7.7 1.3.9l-.1.4-4.4-.8c-.5-.7-1-2-1.6-3.7-.4-1.2-.7-2-1-2.5-.2-.4-.5-.7-.8-.9-.3-.2-.9-.4-1.9-.6l-.8 4.2c-.1.6 0 1.1.2 1.4.2.3.7.6 1.4.9l-.1.4-7-1.3zm8.7-11.9l-1-.2-1 5.7c.3.1.5.1.7.2 1.2.2 2.1.1 2.8-.2.6-.4 1-1.1 1.2-2.1.3-1.9-.6-3-2.7-3.4zM116.4 204.3l-.1-.4c.6-.2 1-.4 1.3-.6.2-.2.3-.4.3-.7 0-.2-.2-.6-.4-1l-1.2-2-5.5.7-.5 1.9c-.1.5-.2.9-.1 1.2.1.6.6 1 1.7 1.1l.1.4-4.9.6-.1-.4c.6-.2 1.1-.5 1.5-1 .4-.5.7-1.4 1-2.5l3-11.3 2.1-.3 6.1 10.5c.6.9 1.1 1.6 1.5 1.9.5.3 1 .5 1.7.5l.1.4-7.6 1zm-5.1-5.1l4.6-.6-3-5.3-1.6 5.9zM137.5 183.7l-.2-.4 4.7-2.2.2.4c-1.3.7-1.7 1.7-1.1 3L146 195l-.5.2-14.8-5.7 3.6 7.8c.3.7.7 1.1 1.1 1.2.4.1 1 .1 1.9-.2l.2.4-4.8 2.2-.2-.4c.6-.4 1-.8 1.1-1.3.1-.4.1-1-.2-1.7l-4-8.7c-.8-.3-1.3-.4-1.6-.5h-.9l-.2-.4 4.2-1.9 12.1 4.8-2.6-5.7c-.4-.8-.8-1.4-1.2-1.6-.3 0-.9 0-1.7.2zM163.1 181.6l.3.3-5.4 4.8-.3-.3c.5-.6.7-1.1.8-1.5 0-.4-.2-.8-.7-1.4l-7-8.1-1.2 1c-.7.6-1.1 1.2-1.3 1.9-.2.6-.1 1.3.2 2.1l-.3.3-2.2-2.7.4-.3c.4-.1.8-.3 1.3-.8l7.5-6.5c.5-.5.8-.9 1-1.2l.4-.3 2.3 2.4-.3.3c-.7-.4-1.4-.6-2.1-.5-.7.1-1.3.4-2 1l-1.2 1 7.1 8.1c.5.5.9.8 1.3.8.3.1.8 0 1.4-.4zM164.6 158.5l.3.2c-.3.7-.4 1.2-.4 1.6.1.4.4.8 1.1 1.3l7.3 5.2c.5.4.9.5 1.3.5.3-.1.8-.4 1.4-.9l.3.2-4.2 5.9-.3-.2c.2-.5.3-.9.4-1.2 0-.3 0-.6-.1-.8-.1-.2-.4-.5-1-.9l-7.3-5.2c-.5-.4-.9-.5-1.3-.5-.4.1-.8.4-1.4.9l-.3-.2 4.2-5.9zM176.4 145.5l.2-.5 4 1.7-.2.5c-1.2-.3-2 .1-2.5 1.3l-1.1 2.5 3.8 1.6c.6.2 1.1.3 1.4.1.4-.2.7-.6 1-1.4l.3-.8c.6-1.4.2-2.7-1.2-4l.2-.4 3 1.6-4.5 10.8-.4-.2c.2-.8.2-1.3 0-1.7-.2-.3-.6-.7-1.3-1l-8.3-3.5c-.6-.3-1.1-.3-1.4-.2-.3.1-.7.5-1.1 1.2l-.3-.1 4.5-10.7 2.9 1.2-.2.4c-.9-.1-1.6-.1-2.1.2-.4.2-.8.7-1.1 1.5l-1.2 2.8 5.3 2.2 1.1-2.5c.2-.6.3-1.1.2-1.5-.2-.3-.5-.7-1-1.1z"/></g><g><path class="st0" d="M19.9 142.1c1 4.6 1 4.8 1.3 5 .1.1.3.3.4.3l.4-.2c.1-.1.4.3.4.5s0 .3-.3.5l-.5.3-6.3 3.7c-.3.2-.4.2-.6.3-.5.1-.7-.1-.9-1l-6.3-29.4-2.9.6c-.5.1-.7 0-.8-.4-.1-.3 0-.4.6-.8l4.7-2.7c1.4-.8 2.3-1.2 3.8-1.5l15.1-3.2c.3-.1.5 0 .5.2.1.2-.1.4-.6.8l-4.8 2.9c-1.2.7-1.9 1-3.5 1.3l-4.5 1 2.4 11.3 13.4-2.8c.3-.1.5 0 .6.2.1.3 0 .4-.6.8l-4.8 2.9c-1.1.6-2.2 1.1-3.5 1.4l-4.3.9 1.6 7.1zM49.5 135.9c1 4.5 1 4.8 1.2 5.1.1.1.4.3.4.3l.4-.1c.1 0 .4.2.4.5.1.3.1.3-.8.8l-6.3 3.7-.6.3c-.5.1-.7-.1-.9-1L37 115.7l-3 .6c-.2.1-.4 0-.5-.3-.1-.3 0-.5.5-.7l4.6-2.6c1.6-.9 3.9-1.6 7.7-2.4 3.8-.8 6.3-1.1 8.4-.9 3.1.3 5.5 2.4 6.1 5.6.8 3.9-.9 6.8-6.3 10.6.8.4 1.5.8 2.4 1.8l8.6 9.2c1.5 1.6 1.5 1.7 2.2 1.5.2-.1.6-.2.8-.3l.3-.1c.2 0 .4.2.5.5.1.3-.1.4-.5.6l-4.6 2.6c-1.1.7-1.7.9-2.3 1-1.1.2-1.8-.1-3.1-1.5l-10.4-11.3c-.1-.1-.1-.2-.2-.3-.1-.4-.1-.4 1.3-1.5 3.2-2.5 4.5-5.5 3.8-8.8-.8-3.9-3.9-5.8-7.9-5l-.8.2 4.9 21.7zM78.2 133.1c-.2 1.8-.2 2.7-.2 2.8.1.3.2.4.7.4.2 0 .4.2.4.4.1.3 0 .3-.4.6l-4.3 2.3-.6.4c-.2.1-.4.2-.6.2-.3.1-.5-.1-.6-.4-.1-.3-.1-.3.3-2.7l4.4-30.8c-.2-.5-.3-.6-.8-.5-.1 0-.3-.1-.3-.4s-.1-.3.5-.6l4.9-2.2c1-.5 1-.5 1.2-.5.5-.1.8.1 1.4 1.1l15.1 26.2c1.2 1.9 1.2 1.9 1.7 1.8.1 0 .2-.1.3-.1.3-.2.3-.2.4-.2.2-.1.5.1.5.4.1.2 0 .3-.5.6l-5.6 3c-1.3.7-1.4.8-1.7.8-.8.2-1.1-.2-1.9-1.5l-4.5-8.4-9.3 2-.5 5.3zm4.8-17c-1.1-2.1-2.2-4.3-2.6-5.4.1 1.5 0 2.9-.3 6.2l-.8 6.8c0 .2 0 .3-.1.7.3-.1.3-.1.7-.2L86 123c.4-.1.4-.1.7-.1-.2-.3-.2-.4-.4-.6l-3.3-6.2zM113.3 111.7c-2.3-2.3-3.7-4-4.9-5.9.6 1.8 1 3 1.4 4.9l3.4 16.1c.4 1.9.7 2.5 1.1 2.4.1-.1.1-.1.2-.1.2 0 .4.1.4.4.1.3 0 .4-.5.6L111 132c-.6.3-.6.3-.7.4-.4.1-.6-.1-.9-1.4l-6.2-29.1-.2-.3c-.3-.4-.7-.5-1.3-.3-.3.1-.6.2-1 .4s-.4.2-.5.3c-.2 0-.4-.1-.5-.5-.1-.2.1-.4.4-.6l6.4-3.3c1.6-.9 1.6-.9 2-.9.6-.1.8-.1 1.5.7l17.5 17.7c1.1 1.1 2 2.3 2.7 3.5l-4.4-20.8c-.4-1.8-.7-2.5-1.1-2.3-.1.1-.1.1-.2.1-.2 0-.4-.1-.4-.4-.1-.3 0-.4.5-.6l3.4-1.9c.6-.3.6-.3.7-.4.4-.1.6.1.9 1.4l3.2 15.2c.8 3.9 1.6 9.3 1.6 11.3.1 1.7-.2 2.4-1 3.7l-2.4 3.5c-.3.5-.6.7-.9.8-.4.1-.6 0-1-.4l-15.8-16.1zM152.6 90.5c-3 2.6-4.1 7.9-2.8 14 1 4.9 2.9 8.1 6.1 10.5 2.6 1.9 5.6 2.7 8.4 2.1 1.7-.4 4.1-1.4 6.3-2.6.4-.2.5-.3.7-.4.2 0 .5.2.6.6 0 .2-.1.4-.4.6l-.4.3c-4.8 3.3-8.8 5.3-11.8 5.9-7.8 1.7-14.7-3.7-16.7-12.9-2.3-10.6 4-19.8 15-22.2 4.5-1 8.7-.4 9.1 1.2.1.3-.1.7-.6 1.1l-4.5 3.8c-.2.1-.3.2-.5.3-.2.1-.7-.3-.8-.5 0-.1 0-.2.1-.3l.1-.2c-.1-.3-1.2-.8-2.3-1.1-1.5-.4-3.5-.4-5.2-.1l-.4-.1zM171.8 87.2c-.5.1-.6 0-.7-.4-.1-.3-.1-.3.6-.7l4.7-2.7c1.4-.8 2.1-1.1 3.8-1.4l15.3-3.3c.3-.1.5 0 .6.2.1.3.1.3-.6.7l-4.9 3c-1.1.6-2 1-3.5 1.3l-4.5 1 2.4 11.3 13.4-2.9c.3-.1.5 0 .6.2.1.3.1.3-.6.8l-4.9 3c-1.1.7-2 1-3.5 1.3l-4.2.9 2.5 11.8 14.3-3c.6-.1.8-.1.9.3.1.3 0 .5-.7.8l-5.4 3c-1.2.7-2 1-3.4 1.3l-12.2 2.6c-.5.1-.7 0-.8-.5l-6.2-29.3-3 .7z"/></g><g><path class="st0" d="M210.1 120L8.6 162.8c.4.8.7 1.6 1.1 2.4L210 122.6v-2.4c.1 0 .1-.1.1-.2zM195.5 66.9L.3 108.4l-.3 2.7 196.9-41.9c-.4-.7-.9-1.5-1.4-2.3z"/></g><g><path class="st1" d="M130.3 0h-15.5l-5.7 21.4c5.1.2 10.2.8 15.1 1.8L130.3 0zM58.9 208.4l-18.2 68h15.5l16.6-62c-4.8-1.7-9.4-3.7-13.9-6z"/><path class="st2" d="M72.9 214.4l-16.6 62h15.5l15.6-58.3c-5-.8-9.8-2.1-14.5-3.7zM138.6 27.1L145.8 0h-15.5l-6.2 23.1c5 1 9.8 2.3 14.5 4z"/><path class="st2" d="M124.1 23.1L130.3 0l-6.2 23.1zM72.9 214.4l-16.7 62 16.7-62z"/><path class="st3" d="M152.4 33.3l9-33.3h-15.5l-7.3 27.1c4.8 1.7 9.4 3.8 13.8 6.2zM71.8 276.4h15.5l15.2-56.7c-5.1-.1-10.2-.7-15.1-1.5l-15.6 58.2z"/><path class="st3" d="M87.4 218.1l-15.6 58.3 15.6-58.3zM138.6 27.1L145.8 0l-7.2 27.1z"/></g><path fill="#af2912" d="M159.5 7.1l1.9-7.1 4.7 7.1z"/></svg>