<svg version="1.1" id="Calque_1" xmlns="http://www.w3.org/2000/svg" x="0" y="0" viewBox="0 0 346.3 403.9" xml:space="preserve"><style>.st0{fill:#fabb43}.st2{fill:#eef7f8}.st3{fill:#373736}</style><circle class="st0" cx="173.2" cy="230.7" r="173.2"/><circle cx="173.2" cy="230.7" r="169.2" fill="#9fd1cb"/><path class="st0" d="M212.2 65.4c-12.4-2.8-25.3-4.2-38.8-4.2-13.4 0-26.3 1.4-38.7 4.1l-.8-3.8c-2.5-16.3-6.9-31.8-17.4-45.1 2.9.2 5.6.8 8.2 1.7 7 2.4 13.2 6.4 18.9 11.1 3.4 2.8 6.5 5.9 9.7 8.9.3.3.5.7.8 1.1.1-.1.2-.1.3-.2.6-2.2 1.1-4.5 1.7-6.7 2-7.7 4.5-15.1 8.4-22.1 2.2-4 4.8-7.6 8.6-10.3h.2c4.1 2.6 6.9 6.4 9.1 10.6 4.1 7.7 6.6 16 8.6 24.4.3 1.3.6 2.6.9 3.8 0 .1.1.1.2.2.8-.9 1.6-1.7 2.4-2.5 5.9-6.1 12.2-11.6 19.7-15.7 4.2-2.3 8.7-4 13.6-4.3h1.9c-9.5 13.7-14.6 28.8-16.9 45l-.6 4z"/><path class="st2" d="M100.6 185.1c2-2.9 4-5.8 6.1-8.6 3.6-4.7 7.8-8.8 12.3-12.6 6.4-5.4 13.4-9.8 20.9-13.4 6.2-3 12.6-5.5 19.2-7.4.5-.1 1-.3 1.7-.6-.5-.3-.8-.4-1.1-.6-4.3-2.1-8.1-5-11.6-8.2-1.3-1.2-2.7-2.1-4.6-2.5-5.1-1.1-10-3-13.9-6.6-1.6-1.5-3-3.3-4.3-5.1-.5-.6-.9-1-1.7-1.1-6.2-1-12.3-2.6-18-5.2-1.7-.8-3.4-1.9-4.8-3.1-3-2.6-2.4-6.2 1.1-8.1 3.1-1.8 6.5-2.7 10-3.2 4.3-.6 8.6-1.1 12.9-1.5 4.3-.3 8.6-.4 12.9-.5 7 0 13.7 1.5 20.2 3.9 7.7 2.8 14.9 6.6 21.5 11.7 4.2 3.3 6.7 7.6 7.2 12.9.3 3.7.1 7.5 0 11.2 0 2 .9 3.4 2.5 4.1 1.6.7 3.4 1.3 5.2 1.6 2.9.5 5.9.6 8.8 0 1.9-.4 2.9-2 4.2-3.2.1-.1 0-.6 0-.9-.8-4.3-.8-8.7 1.5-12.5 1.3-2.2 3.2-4.1 5-5.9 3.3-3.1 7-5.6 11-7.8 3.8-2 7.7-3.6 12.1-4 5.2-.5 9.3 1.9 11.7 5.7 1.5 2.5 2.2 5.3 2.6 8.2.8 7.5-.5 14.8-2.6 21.9-2 6.5-6.4 10.1-12.7 11.7-1 .3-1.5.8-1.9 1.7-1.2 2.4-.6 4.7.4 7 1.6 3.4 3.3 6.7 6.3 9 1.6 1.2 3.3 1.4 5.2.4 3.6-2 7.2-4.2 11.3-5.1.4-.1.8 0 1.2 0 0 .2-.1.3-.1.5-4.7 11.7-9.3 23.4-14 35.1-.6 1.6-1.3 3.1-2 5-4.9-17.2-9.7-34.1-14.4-50.9h-7.3c.2.7.3 1.2.5 1.8 3.6 12.7 7.2 25.5 10.8 38.2 2.8 9.9 5.7 19.9 8.4 29.8.2.8.6 1.1 1.3.9.3-.1.6-.6.7-.9 3.1-7.8 6.2-15.5 9.4-23.3.2 1 .5 2 .6 3 .2 2.3.4 4.5.5 6.8.1 2.5.3 4.9.2 7.4-.2 10.4-1.6 20.5-4.8 30.4-.1.2-.1.5-.2.7-2.6-1.3-5.4-2.1-8.4-2-6.9.2-12 3.4-14.7 9.8-2.7 6.3-1.9 12.3 2.8 17.5 1.2 1.3 2.7 2.3 4 3.5-1.4 1.4-2.8 2.9-4.1 4.3-7.8 8.2-16.9 14.7-26.6 20.4-8.4 4.9-17.2 8.7-26 12.7-1.7.8-3.4 1.8-5 2.8-.5.3-.9 1-1 1.5-.8 8.5-4.3 15.9-9.4 22.6-5.1 6.6-11.4 12-18.6 16.3-2.2 1.3-4.4 1-6.7 0-.4-.2-.7-.7-.9-1.1-.8-2.5-1.7-4.9-2.1-7.5-.6-3.4-1-7-1-10.4 0-4.1.4-8.1 2.1-11.9.5-1.1 1-2.1 1.7-3.3-17.3-1.5-30.3-9.7-39.1-24.7-.7.9-1.3 1.8-2 2.5-3.9 4.4-8.9 7-14.2 9-3.9 1.5-7.9 2.6-12.1 3.3-1.9.3-3.2-.5-4.3-1.9-1.1-1.5-1.5-3.3-1.3-5.1 1.3-10.7 4.5-20.8 10.8-29.7 1.2-1.8 2.7-3.3 4.1-5 .3.3.6.5.8.8 4.2 5.1 9.6 7.1 16 6.1 6.7-1.1 12.1-6.6 13.2-13.1 1.2-7.3-1.9-13.9-8.2-17.3-3.9-2.1-8.1-2.4-12.4-1.5 0-3.6-.2-7.2.1-10.8.4-5.6.9-11.2 1.6-16.7.7-6.3 2.3-12.4 4.1-18.4.5-1.7 1.1-3.3 1.9-4.9v26.9c0 .5.1.9.2 1.4h34.2v-6.8H101.7c-.4 0-.8-.1-1.3-.1v-1.7c.2-11.7.2-23.5.2-35.3zm72.2-28.5c-20.8 0-36.9 16.4-37.1 37.4-.2 19.9 16.3 36.8 37 37 20.8.2 37.8-16.6 37.8-37.3 0-21.3-17.3-37.5-37.7-37.1zM132.6 283h3c1-7.3 2-14.6 3-22.1.4.7.6 1.1.8 1.5 3.3 6.6 6.5 13.1 9.8 19.7.2.4.6.6.9.9.3-.3.6-.6.8-.9 2.6-5.2 5.2-10.4 7.8-15.7.9-1.7 1.7-3.5 2.8-5.5.9 6.7 1.8 13.1 2.7 19.5.4 2.7.3 2.7 3 2.6.1 0 .2-.1.4-.2-1.5-10.3-3-20.6-4.4-30.9-.2 0-.3-.1-.5-.1-4.2 8.4-8.3 16.9-12.5 25.5-4.3-8.6-8.5-17.1-12.7-25.5-.2 0-.3.1-.5.1-1.5 10.4-2.9 20.7-4.4 31.1zm44.3-15.2h14.4v-3.1H177v-9.6h14.5v-3h-17.6V283h17.5v-3H177c-.1-4.1-.1-8.1-.1-12.2zm-67.8 9.5c1 1.3 1.9 2.6 2.9 3.7 2.4 2.5 5.5 3.3 8.8 2.5 5.3-1.2 9.4-7.7 4.5-13.5-2.1-2.4-4.9-4.2-7.3-6.4-1-.9-2.2-1.8-2.9-3-1.7-2.6-.2-5.7 2.8-6.2 1.7-.3 3.2.3 4.4 1.4.7.7 1.4 1.5 2.1 2.3.8-.7 1.7-1.3 2.5-1.9.1-.2.2-.4.4-.5l-3.6-3c-3.3-2.5-8.2-2-10.7.9-2.6 3-2.3 7.5.8 10.5 1.3 1.3 2.9 2.4 4.3 3.6 1.6 1.5 3.3 2.9 4.8 4.5 1.1 1.2 1.5 2.7 1.1 4.4-1.1 4.1-6.2 5.5-9.4 2.4-1-1-1.8-2.2-2.8-3.4-.8.6-1.7 1.1-2.7 1.7zm94.7 5.7v-27.9h6.9v-3h-16.9v3.1h6.9V283h3.1zm11.1-30.9V283h2.9v-30.9h-2.9zm-26.2-9h-4c-.3 0-.7.1-.8.3-1.4 2-2.8 4-4.5 6.3 1.3-.2 2.7.1 3.3-.5 2.1-1.8 3.9-3.9 6-6.1z"/><path class="st3" d="M251.8 205c-3.1 7.8-6.2 15.5-9.4 23.3-.1.4-.4.8-.7.9-.7.2-1.1-.1-1.3-.9-2.8-9.9-5.6-19.9-8.4-29.8-3.6-12.7-7.2-25.5-10.8-38.2-.2-.6-.3-1.2-.5-1.8h7.3c4.8 16.8 9.6 33.7 14.4 50.9.8-1.9 1.4-3.5 2-5 4.7-11.7 9.3-23.4 14-35.1.1-.1.1-.3.1-.5 1.3-3.1 2.5-6.2 3.8-9.4.2-.5.3-1 1.1-1s.9.5 1.2 1c1.3 3.3 2.6 6.5 4 9.8 0 .2.1.4.1.6 4.3 11 8.7 22 13 33.1.8 2.1 1.7 4.2 2.6 6.5.9-3 1.7-5.8 2.5-8.5 1.5-5.2 2.9-10.4 4.4-15.5 1.3-4.3 2.6-8.6 3.8-12.9 1.3-4.3 2.5-8.6 3.7-13 .2-.7.5-1 1.3-1 2 .1 4.1 0 6.2 0-.9 3.2-1.8 6.3-2.7 9.4-2.2 7.8-4.5 15.5-6.7 23.3-.1.2-.1.5-.1.7l-3.3 11.1c-1.8 6.4-3.6 12.7-5.4 19.1-.6 2.1-1.2 4.2-1.9 6.2-.1.4-.5.8-.9.9-.7.2-.8-.3-1-.8-1.1-2.8-2.2-5.5-3.3-8.3 0-.1 0-.2-.1-.3-5-12.7-9.9-25.4-14.9-38-.8-1.9-1.5-3.8-2.4-5.9-3.4 8.6-6.8 17-10.1 25.4-.5 1.1-1.1 2.4-1.6 3.7zM36.7 216l6-3.6c1.2 1.8 2.3 3.5 3.6 5.2 2.4 3.2 5.4 5.7 9.5 6.4 3 .5 5.8-.2 8.4-1.6 3.6-1.9 5.8-5 6.4-9.1.4-2.3-.3-4.5-1.4-6.6-2-3.6-5-6.4-8.2-9-4.8-4-9.7-7.8-14.4-12-2.9-2.5-4.5-5.9-5.1-9.8-.9-6.1.6-11.3 5.3-15.4 2.8-2.5 6.3-3.7 10-3.9 4.4-.3 8.5.6 12.2 3.1 3.1 2.1 5.5 4.9 7.7 7.9.1.1.2.3.3.5-1.9 1.4-3.8 2.9-5.7 4.3-1.1-1.2-2.1-2.4-3.1-3.6-2-2.4-4.5-4.1-7.6-4.8-4.5-1.1-9.7 1.2-11.3 5.2-1.5 3.8-.6 7.4 1.9 10.6 2.5 3.2 5.9 5.3 9.1 7.7 4 3 8 6 11.5 9.7 3.3 3.5 5.8 7.5 6.4 12.2.7 5.2-.5 10-4.1 14-1.7 1.8-3.7 3.3-5.7 4.8s-4.5 2.1-7 2.4c-6.3.9-11.9-.6-16.9-4.6-2.6-2.2-4.6-4.9-6.4-7.8-.4-.5-.9-1.3-1.4-2.2z"/><path class="st2" d="M288 222c1.8-6.4 3.6-12.7 5.4-19.1l3.3-11.1c3.5 4.4 6 9.4 8.2 14.6 2.1 5 4.1 10 5.8 15 1.6 4.5 2.8 9.2 2.5 14-.1 3-1.4 4.9-4 5.1-1.4.1-3-.4-4.3-1.1-3.4-1.8-6.2-4.5-8.7-7.4-2.6-3.1-5.1-6.4-7.6-9.5-.2-.2-.4-.3-.6-.5z"/><path class="st3" d="M100.6 222.2c.4.1.8.1 1.3.1H127.7v6.8H93.5v-27.8-1.2-41.7h7.1v62.4c-.2.5-.1 1 0 1.4z"/><path class="st2" d="M253.4 201.1c3.3-8.4 6.6-16.7 10.1-25.4.9 2.1 1.6 4 2.4 5.9 5 12.7 9.9 25.4 14.9 38 0 .1.1.2.1.3-.4-.1-.8 0-1.1-.2-4.9-2.4-8.5-6.2-11.8-10.5-.3-.4-.8-.9-1.4-1.1-4.3-1.6-8.4-3.7-12.2-6.3-.4 0-.7-.4-1-.7zM291.1 185.3c-1.5 5.2-2.9 10.4-4.4 15.5-.8 2.8-1.6 5.5-2.5 8.5-.9-2.3-1.7-4.4-2.6-6.5-4.3-11-8.7-22-13-33.1-.1-.2-.1-.4-.1-.6 6.2 2.7 11.7 6.6 16.8 10.9 2 1.8 3.9 3.5 5.8 5.3z"/><path class="st3" d="M231.9 282c-1.3-1.2-2.8-2.2-4-3.5-4.6-5.2-5.4-11.2-2.8-17.5 2.7-6.4 7.8-9.6 14.7-9.8 3-.1 5.8.7 8.4 2 2.4 1.7 4.6 3.5 6 6.2 1.7 3.1 2.3 6.4 2 9.9-.4 4.1-2.1 7.5-5.3 10.3 1.5 2 3 3.8 4.6 5.9h-3.7c-.2 0-.5-.3-.7-.5-.8-.9-1.4-1.9-2.2-2.8-.2-.2-.9-.4-1.2-.2-2.9 1.6-6.1 2.2-9.3 1.8-2.2-.2-4.4-1.2-6.5-1.8zm15.1-25.6c-6.3-4-14.5-2-18.2 4.3-3.8 6.5-1.7 14.9 4.8 18.5 4.3 2.4 8.6 2.1 13.1-.1-2.3-2.9-4.6-5.8-6.9-8.6v-.2c.7 0 1.4 0 2.2-.1 1.1-.2 1.8.3 2.5 1.2 1.4 2 3 3.9 4.6 5.8 6.2-5.8 5.1-16.5-2.1-20.8zM85.5 251.7c4.3-.9 8.5-.7 12.4 1.5 6.2 3.4 9.3 10 8.2 17.3-1 6.5-6.5 12-13.2 13.1-6.4 1-11.8-.9-16-6.1-.2-.3-.5-.6-.8-.8-.7-1.8-1.5-3.5-2.1-5.3-1-3.2-.6-6.5.5-9.6 1.5-4.2 4.4-7.4 8.6-9.2.7-.3 1.6-.6 2.4-.9zm0 3.4c-2.6.8-4.6 2.5-6.2 4.6-3 4.2-3.3 10.8-.6 14.6 1.3 2.4 3.3 4.2 5.7 5.2 5 2.2 9.8 1.6 14-1.9 4.3-3.6 5.5-8.5 4.1-13.9-1.9-7.2-10.4-11.4-17-8.6zM68.7 277.6c-2.8 3.5-6.3 5.4-10.5 6-5 .7-9.8.1-13.9-3.2-3-2.4-5-5.5-5.6-9.4-.5-2.7-.5-5.5.2-8.2 1.6-5.7 5.3-9.4 10.9-10.9 6.7-1.8 12.8-.6 17.8 4.5.2.2.4.5.6.7.1.2.2.4.4.6-.4.3-.8.7-1.2 1l-1.2.9c-6.3-7.6-16.2-6.2-21-1.2-4.7 4.9-4.6 13.3 0 18.3 4.6 4.9 14.7 6.3 21-1 .8.7 1.6 1.3 2.5 1.9zM290.9 252h17.7v3.1h-14.5v9.6h14.3v3.1h-14.3v12.1c.4.1.7.2 1.1.2h13.1v2.9h-17.4v-31zM283.3 270.9c-.2 2.7-.2 5.5-1.5 8-1.8 3.2-4.6 4.9-8.4 4.9-2.6.1-5-.5-7.1-2.1-2-1.6-3.3-3.6-3.3-6.2-.1-7.6-.2-15.3-.2-22.9 0-.2 0-.3.1-.6h3c0 6.8 0 13.5.1 20.3 0 .5.1.9.2 1.4-.1 2.7.7 4.8 3.2 6.1 2.7 1.4 5.3 1.5 7.9-.3 1.9-1.4 2.9-3.2 2.9-5.6V252h3.3v1.7c-.3 5.7-.2 11.5-.2 17.2zM172.8 156.6c20.3-.4 37.7 15.7 37.7 37.1 0 20.8-17 37.6-37.8 37.3-20.8-.2-37.2-17.2-37-37 .2-21 16.3-37.4 37.1-37.4zm30.3 37.3c.1-18.9-15.1-30-29.1-30.3-17.3-.4-30.7 12.9-30.9 30.4-.2 17.1 13.7 29.9 28.8 30.2 17.8.3 31-12.5 31.2-30.3zM132.6 283c1.5-10.4 3-20.7 4.4-31 .2 0 .3-.1.5-.1 4.2 8.4 8.4 16.9 12.7 25.5 4.2-8.6 8.4-17.1 12.5-25.5.2 0 .3.1.5.1 1.5 10.3 3 20.6 4.4 30.9-.2.1-.3.1-.4.2-2.7.1-2.7.1-3-2.6-.9-6.4-1.8-12.8-2.7-19.5-1 2-1.9 3.7-2.8 5.5-2.6 5.2-5.2 10.4-7.8 15.7-.2.4-.5.6-.8.9-.3-.3-.7-.6-.9-.9-3.3-6.6-6.6-13.1-9.8-19.7-.2-.4-.4-.8-.8-1.5-1 7.6-2 14.8-3 22.1-1-.1-2-.1-3-.1zM176.9 267.8v12.1h14.4v3h-17.5V252h17.6v3h-14.5v9.6h14.3v3.1c-4.7.1-9.5.1-14.3.1zM109.1 277.3c1-.6 1.9-1.1 2.7-1.6.9 1.2 1.7 2.4 2.8 3.4 3.2 3.1 8.3 1.7 9.4-2.4.4-1.6 0-3.2-1.1-4.4-1.5-1.6-3.1-3.1-4.8-4.5-1.4-1.2-3-2.3-4.3-3.6-3.1-3-3.4-7.4-.8-10.5 2.5-2.9 7.4-3.4 10.7-.9 1.2.9 2.4 2 3.6 3-.1.2-.2.4-.4.5-.8.6-1.6 1.3-2.5 1.9-.7-.8-1.4-1.6-2.1-2.3-1.2-1.2-2.7-1.7-4.4-1.4-3.1.5-4.5 3.6-2.8 6.2.7 1.1 1.9 2.1 2.9 3 2.4 2.1 5.2 3.9 7.3 6.4 4.9 5.8.8 12.3-4.5 13.5-3.3.8-6.4 0-8.8-2.5-1-1.1-1.9-2.4-2.9-3.8zM203.8 283h-3.1v-27.8h-6.9v-3.1h16.9v3h-6.9V283zM214.9 252.1h2.9V283h-2.9v-30.9zM188.7 243.1c-2.1 2.2-3.9 4.4-6 6.2-.6.5-1.9.3-3.3.5 1.6-2.3 3-4.3 4.5-6.3.1-.2.5-.3.8-.3 1.3-.1 2.5-.1 4-.1z"/><path class="st2" d="M239.8 270.3v.2c-.1.3-.1.6-.2.8-1.5 2.2-3 4.3-4.5 6.5-.4.5-1 1-1.5 1.4-6.5-3.6-8.6-11.9-4.8-18.5 3.7-6.3 12-8.3 18.2-4.3-1.5 3.4-3 6.8-4.7 10.2-.7 1.3-1.7 2.4-2.5 3.7zM85.5 255.1c6.6-2.9 15.1 1.4 17.1 8.6 1.4 5.4.3 10.2-4.1 13.9-4.2 3.5-9 4.1-14 1.9-2.5-1.1-4.4-2.9-5.7-5.2 1.8-1.3 3.5-2.7 5.3-4 .8-.5 1.3-1.2 1.4-2.1.1-1 .3-2 .3-3-.2-3.3-.3-6.7-.3-10.1zM203.1 193.9c-.3 17.8-13.4 30.6-31.3 30.3-15.1-.3-29-13.1-28.8-30.2.2-17.5 13.6-30.7 30.9-30.4 14.1.3 29.3 11.4 29.2 30.3z"/></svg>