<?xml version="1.0" encoding="utf-8"?>
<!-- Generator: Adobe Illustrator 26.3.1, SVG Export Plug-In . SVG Version: 6.00 Build 0)  -->
<svg version="1.1" id="Calque_1" xmlns="http://www.w3.org/2000/svg" xmlns:xlink="http://www.w3.org/1999/xlink" x="0px" y="0px"
	 viewBox="0 0 141.73 141.73" style="enable-background:new 0 0 141.73 141.73;" xml:space="preserve">
<style type="text/css">
	.st0{fill:#1E2B50;}
</style>
<g>
	<path class="st0" d="M26.43,9.16C25.75,19.88,28.04,40.3,36.95,46c3.8,2.43,8.62,1.94,14.34-1.45c5.96-3.53,8.48-7.66,7.5-12.23
		C56.61,22.17,37.88,11.28,26.43,9.16 M42.2,50.79c-2.48,0.01-4.92-0.7-7-2.05c-11.33-7.26-12.89-31.61-11.85-41.6
		c0.04-0.43,0.26-0.82,0.59-1.1c0.34-0.27,0.77-0.39,1.2-0.34c11.25,1.28,34,12.85,36.8,25.95c0.9,4.19,0.06,10.32-9.02,15.7
		C49.73,49.44,46.02,50.62,42.2,50.79"/>
	<path class="st0" d="M64.42,113.34h-0.03c-0.82-0.02-1.51-0.65-1.58-1.47c-6.41-67.52-24.77-84.47-24.95-84.63
		c-0.67-0.6-0.73-1.62-0.14-2.29c0.59-0.67,1.61-0.73,2.28-0.14c0.74,0.66,17.22,15.86,24.66,74.4
		c5.95-34.8,15.06-42.37,50.84-50.93c0.87-0.21,1.74,0.33,1.95,1.2c0.21,0.87-0.33,1.75-1.2,1.96
		c-38.59,9.23-44.22,16.02-50.23,60.5C65.91,112.74,65.22,113.34,64.42,113.34"/>
	<path class="st0" d="M72.36,73.38c6.64,7.58,13.59,10.9,20.65,9.85c11.7-1.71,24.41-15.7,35-38.46c-23.43-6.99-43-4.43-52.6,6.98
		C70.01,58.18,68.85,66.45,72.36,73.38 M90.44,86.66c-7.19,0-14.12-3.79-20.65-11.3c-0.09-0.1-0.16-0.2-0.22-0.31
		c-4.23-8.16-2.94-17.88,3.37-25.37c10.7-12.73,32.32-15.51,57.81-7.44c0.85,0.27,1.32,1.18,1.06,2.03
		c-0.02,0.06-0.05,0.12-0.07,0.18c-6.59,14.56-20.32,39.37-38.25,42C92.47,86.59,91.45,86.66,90.44,86.66"/>
	<path class="st0" d="M95.66,72.08c-0.3,0-0.6-0.09-0.86-0.25c-7.9-4.94-13.92-5.97-13.98-5.98c-0.88-0.15-1.48-0.98-1.34-1.86
		c0.15-0.88,0.98-1.48,1.86-1.34c0.27,0.05,6.74,1.14,15.18,6.43c0.76,0.48,0.99,1.48,0.52,2.24
		C96.73,71.79,96.21,72.08,95.66,72.08z"/>
	<path class="st0" d="M107.29,63.69c-0.33,0-0.66-0.11-0.93-0.3c-5.65-4.01-13.61-4.86-13.69-4.87c-0.88-0.11-1.52-0.92-1.4-1.81
		c0.11-0.86,0.87-1.48,1.73-1.41c0.36,0.04,8.88,0.94,15.24,5.45c0.73,0.52,0.9,1.53,0.39,2.25
		C108.31,63.44,107.82,63.7,107.29,63.69z"/>
	<path class="st0" d="M29.63,121.13h3.28l2.56,5.73c0.57,1.27,1.16,3.37,1.16,3.37s0.57-2.08,1.14-3.37l2.49-5.73h2.98l-6.52,15
		h-0.3L29.63,121.13z"/>
	<polygon class="st0" points="45.24,121.14 45.24,136.01 55.39,136.01 55.39,133.31 48.3,133.31 48.3,131.17 54.27,131.17 
		54.27,128.55 48.3,128.55 48.3,123.82 55.08,123.82 55.08,121.14 	"/>
	<path class="st0" d="M57.51,128.57c0-4.4,3.41-7.61,7.7-7.61c2.6,0,4.63,0.92,6.03,3.08l-2.41,1.71c-0.79-1.27-1.95-2.04-3.63-2.04
		c-2.71,0-4.55,2.08-4.55,4.86c0,2.78,1.84,4.92,4.57,4.92c2.27,0,3.76-1.27,4.11-2.78h-3.71v-2.67h6.95
		c0.24,4.92-2.34,8.16-7.33,8.16C60.77,136.2,57.51,132.97,57.51,128.57"/>
	<path class="st0" d="M81.41,131.76l-1.07-2.58c-0.44-1.05-0.9-2.67-0.9-2.67s-0.43,1.62-0.87,2.67l-1.07,2.58H81.41z M79.35,121
		h0.26l6.8,15H83.2l-0.7-1.68h-6.03l-0.7,1.68h-2.95L79.35,121z"/>
	<path class="st0" d="M92.84,129.09c-0.74-0.7-1.77-2.03-1.77-2.03s0.22,1.64,0.22,2.71v6.24h-2.87v-15h0.3l7.5,7.04
		c0.72,0.68,1.75,2.04,1.75,2.04s-0.2-1.68-0.2-2.71v-6.23h2.87v15h-0.31L92.84,129.09z"/>
</g>
</svg>
