<svg version="1.1" xmlns="http://www.w3.org/2000/svg" x="0" y="0" viewBox="0 0 467.4 176.6" width="467.4" height="176.6" xml:space="preserve"><style>.st0{fill:#002554}</style><path class="st0" d="M616 359.2v10.1h16v45.9h11.5v-45.9h16v-10.1H616zM707.6 359.2v23.7h-24v-23.7h-11.5v56h11.5v-22h24v22h11.5v-56h-11.5zM734.9 359.2v56h38.2v-10.1h-26.7v-13H769v-9.9h-22.5v-12.8H772v-10.1h-37.1zM838.8 416c10.2 0 18.3-3.9 21.5-6.5v-25.1h-24v10.1h13.5v9.1c-2.9 1.4-7.3 2-11 2-11.8 0-18.5-8-18.5-18.5s6.6-18.3 16.7-18.3c6.5 0 9.7 2.2 12.5 5.1l7.8-7.7c-4.6-5.3-11.2-7.7-20.4-7.7-16.9 0-28.6 12.1-28.6 28.7.1 16.6 12.2 28.8 30.5 28.8M886.9 369.3h8.9c5.5 0 9.3 2 9.3 8.3 0 6.2-3.6 8.4-9.3 8.4h-8.9v-16.7zm0 26.5h7.3l11.4 19.4h13.2L906 394c6.5-2.6 11-7.9 11-16.4 0-13.1-9.4-18.5-20.8-18.5h-20.8v56h11.5v-19.3zM1072.6 359.2v23.5c0 3.9.7 10.2.7 10.2-2-2.7-4.2-5.2-6.6-7.7l-28.3-26.5h-1.2v56.5h10.8v-23.5c-.1-3.4-.4-6.8-.8-10.2 2.1 2.7 4.3 5.2 6.7 7.7l28.3 26.5h1.2v-56.5h-10.8zM637.7 461h22.5v-9.9h-22.5v-12.8h25.5v-10.1h-37.1v56h38.2V474h-26.7v-13zM707.7 457.9l-27.6-30.3h-.9v56.6h11v-21c0-3.8-.4-9.8-.4-9.8 1.9 2.7 3.9 5.4 6 7.9l11.1 12.4h1.1l11.1-12.4c2.6-3 6-7.9 6-7.9s-.4 6-.4 9.8v21H736v-56.6h-1l-27.3 30.3zM771.1 455.6h-7.8v-17.4h7.8c5.5 0 9.3 2.4 9.3 8.6 0 6.3-3.6 8.8-9.3 8.8m.3-27.5h-19.7v56h11.5v-18.4h8.2c11.4 0 20.8-5.8 20.8-18.9.1-13-9.3-18.7-20.8-18.7M832.5 474.6c-10.2 0-17.1-8-17.1-18.5s6.9-18.5 17.1-18.5 17.1 8 17.1 18.5-6.9 18.5-17.1 18.5m0-47.2c-16.1 0-29 12.2-29 28.7s12.8 28.7 29 28.7c16.1 0 29-12.2 29-28.7s-12.9-28.7-29-28.7M895.8 455H887v-16.7h8.9c5.5 0 9.3 2 9.3 8.3-.1 6.1-3.7 8.4-9.4 8.4m21.2-8.4c0-13.1-9.4-18.5-20.8-18.5h-20.8v56H887v-19.4h7.3l11.4 19.4h13.2L906.1 463c6.5-2.6 10.9-7.9 10.9-16.4M931.6 428.1h11.5v56h-11.5zM992.6 463.2c0 8.2-3.5 11.3-11 11.3-7.7 0-11.2-3.1-11.2-11.3v-35.1h-11.5v35.8c0 14.2 9.8 21 22.7 21 12.8 0 22.6-6.8 22.6-21v-35.8h-11.5v35.1zM1048.3 457.9l-27.6-30.3h-.9v56.6h11v-21c0-3.8-.4-9.8-.4-9.8 1.9 2.7 3.9 5.4 6 7.9l11.1 12.4h1.1l11.1-12.4c2.6-3 6-7.9 6-7.9s-.4 6-.4 9.8v21h11.1v-56.6h-1l-27.1 30.3zM969.5 405.1h-26.7v-8.2c-1-.6-1.9-1.2-2.8-1.9-4.2-3.2-5.6-3.4-7-3.4-.6 0-1.2.1-1.7.3v23.4h38.2v-10.2zM941.4 378.7c.5.2.9.4 1.4.7v-10h25.5v-10.1h-37.1V377c.6 0 1.1-.1 1.7-.1 3-.1 5.9.6 8.5 1.8M994.8 399.7h-1.1c-3.3-.2-6.5-1.1-9.4-2.6v18.2h38.2v-10.1h-26.7v-5.4c-.3-.1-.6-.1-1-.1M994.5 385h.4c.3 0 .6 0 .9-.1v-15.6h25.5v-10.1h-37.1v20.5c2 1.1 3.9 2.3 5.7 3.7 1.4.9 2.9 1.5 4.6 1.6M1033 534.8h12.5v-3.3h-8.7v-2.6h7.3v-3.2h-7.3v-5.8h8.3v-3.3H1033v18.2zm-13.9 0h3.8v-15h5.2v-3.3h-14.2v3.3h5.2v15zm-15 .3c3.6 0 6.2-1.9 6.2-5.3 0-3.2-1.8-4.6-5-5.9l-.9-.4c-1.6-.7-2.3-1.2-2.3-2.3 0-.9.8-1.6 1.7-1.6h.2c1.1 0 2 .6 2.4 1.6l2.9-1.9c-1-2-3.1-3.2-5.3-3-3.4 0-5.5 2.1-5.5 5 0 3.1 1.8 4.5 4.5 5.7l.9.4c1.7.7 2.7 1.2 2.7 2.5 0 1.1-1 1.9-2.6 1.9s-3-.9-3.7-2.3l-3.1 1.8c1.4 2.5 4.1 4 6.9 3.8m-23.5-.2h12.5v-3.3h-8.7V529h7.3v-3.2h-7.3V520h8.3v-3.3h-12.1v18.2zm-14.3.2c6.1 0 9.3-4 9-10h-8.5v3.3h4.6c-.4 1.9-2.3 3.4-5.1 3.4-3.3 0-5.6-2.6-5.6-6s2.3-6 5.6-6c1.8-.1 3.6.9 4.5 2.5l3-2.1c-1.6-2.5-4.4-4-7.4-3.8-5.2-.1-9.4 4.1-9.5 9.2s4.1 9.4 9.2 9.5h.2m-30 0c4.2 0 7.4-2.2 7.4-6.9v-11.7h-3.8V528c0 2.7-1.1 3.7-3.6 3.7s-3.7-1-3.7-3.7v-11.4h-3.8v11.7c.1 4.6 3.3 6.8 7.5 6.8m-24.1-3.6v-11.7h1.7c4 0 5.9 2.4 5.9 5.8s-1.9 5.8-5.9 5.8l-1.7.1zm-3.8 3.3h5.6c5.6 0 9.6-3.7 9.6-9.1 0-5.4-4-9.1-9.6-9.1h-5.6v18.2zm-26 0h12.5v-3.3h-8.7v-2.6h7.3v-3.2h-7.3v-5.8h8.3v-3.3h-12.1v18.2zm4.7-20.1h2.7l2.8-5.1h-4.1l-1.4 5.1zm-18.6 20.1h3.8v-15h5.2v-3.3h-14.2v3.3h5.2v15zm-17.4.3c4.2 0 7.4-2.2 7.4-6.9v-11.7h-3.8V528c0 2.7-1.1 3.7-3.6 3.7s-3.7-1-3.7-3.7v-11.4h-3.8v11.7c.1 4.6 3.3 6.8 7.5 6.8m-21.9-5.5l1.3-3.2c.5-1.3 1.1-3.3 1.1-3.3.3 1.1.7 2.2 1.1 3.3l1.3 3.2h-4.8zm-5.7 5.3h3.6l.9-2.1h7.4l.9 2.1h4l-8.4-18.4h-.3l-8.1 18.4zm-16.8 0h12.5v-3.3h-8.7V529h7.3v-3.2h-7.3V520h8.3v-3.3h-12.1v18.2zm-14.8-3.3v-5h3.3c1.3-.2 2.6.8 2.7 2.1v.4c.1 1.3-.9 2.4-2.2 2.5h-3.8zm0-8.3v-3.4h3.1c.9-.1 1.7.5 1.8 1.4v.3c0 1-.8 1.7-2 1.7h-2.9zm-3.7 11.6h7.4c3.8 0 6.1-2.4 6.1-5.6.1-2.2-1.5-4.2-3.7-4.6 1.5-.4 2.6-1.8 2.6-3.3 0-2.6-1.9-4.7-5.3-4.7h-7.1v18.2zm-23.5-5.3l1.3-3.2c.5-1.3 1.1-3.3 1.1-3.3.3 1.1.7 2.2 1.1 3.3l1.3 3.2h-4.8zm-5.8 5.3h3.6l.9-2.1h7.4l.9 2.1h4l-8.4-18.4h-.3l-8.1 18.4zm-15.9 0h12v-3.3h-8.3v-15H743v18.3zm-22.7-7.9v-7.2h1.2c3 0 4.4 1 4.4 3.6s-1.3 3.5-4.4 3.5l-1.2.1zm5.9 2.1c2.3-.9 3.7-3.2 3.5-5.7 0-4.5-3.1-6.9-8.2-6.9h-5.1v18.3h3.8v-4.6h1.3c.4 0 .7 0 1.1-.1l3 4.6h4.4l-3.8-5.6zm-23 6c4.2 0 7.4-2.2 7.4-6.9v-11.7h-3.8V528c0 2.7-1.1 3.7-3.6 3.7s-3.7-1-3.7-3.7v-11.4h-3.8v11.7c.1 4.6 3.3 6.8 7.5 6.8m-22.1-3.4c-3.3 0-5.6-2.6-5.6-6s2.3-6 5.6-6 5.6 2.6 5.6 6-2.3 6-5.6 6m0 3.4c5.2 0 9.3-4.3 9.3-9.5s-4.3-9.3-9.5-9.3c-5.1 0-9.3 4.2-9.3 9.4-.1 5.1 4 9.3 9.1 9.4h.4m-23.4-7.7v-7.5h1.2c3 0 4.4 1.2 4.4 3.8 0 2.5-1.3 3.7-4.4 3.7h-1.2zm-3.8 7.5h3.8v-4.2h1.3c5.1 0 8.2-2.6 8.2-7s-3.1-7.1-8.2-7.1h-5.1v18.3z" transform="translate(-615.98 -358.54)"/><path class="st0" d="M931.5 389.2h1.4c2.1 0 4.1.6 8.5 3.9l.3.2.3.2c3.1 2.4 6.8 3.7 10.6 3.9h.5c2 0 6.8-.2 12.6-5 3.4-2.7 5.9-3.2 7.8-3.3 1.6-.1 4.1.3 9.1 4 .7.5 1.4 1 2.1 1.4h.1c.2.1.3.2.5.3h.1c.2.1.3.2.5.3.2.1.3.2.5.2h.1l.5.2h.1c.2.1.4.1.5.2.2.1.3.1.5.2h.1c.2.1.4.1.5.2h.1c.2 0 .4.1.5.2h.1c.2 0 .3.1.5.1.2.1.4.1.5.1h.1c.2 0 .4.1.5.1h.1c.2 0 .4.1.5.1l.6.1h2.3c3.1 0 7.2-.8 12.5-5.2 2.3-1.9 5-3.1 6-3.1 1.6 0 3.3.3 7.6 3.2l5.5-8c-5-3.5-8.7-4.8-13-4.9h-.1c-5.3 0-10.7 4.1-12.2 5.3-2.5 2-4.1 2.7-5.3 2.9h-1.4c-.5 0-1-.1-1.5-.2-1.4-.3-2.7-.9-3.9-1.7-.1-.1-.2-.2-.4-.3-.2-.1-.3-.3-.5-.4-5.5-4-10-5.7-14.7-5.5-5 .3-9.7 2.2-13.5 5.4-3.5 2.8-5.6 2.8-6.8 2.8h-.2c-2-.2-3.9-1-5.4-2.4-1.7-1.3-3.5-2.5-5.4-3.6-.3-.1-.6-.3-.8-.4h-.1c-.3-.1-.5-.2-.8-.4h-.1c-.2-.1-.5-.2-.7-.3h-.1l-.2-.1c-.1 0-.2-.1-.3-.1-.1 0-.1 0-.2-.1s-.1 0-.2-.1h-.2c-.1 0-.2-.1-.3-.1h-.2c-.1 0-.2 0-.2-.1h-.2l-.4-.1h-.4-.1c-.1 0-.3 0-.4-.1h-.4-3.8c-4.8.4-8.7 2.8-11.4 4.6l5.5 8c1.6-1.2 3.5-2.1 5.4-2.7.1.1.2.1.3.1" transform="translate(-615.98 -358.54)"/></svg>