<svg xmlns="http://www.w3.org/2000/svg" viewBox="0 0 116 20" fill="#fff"><path d="M14.093 11.111c-3.376 0-5.277 1.335-8.209 3.511L.35 5.378l.138-.102C3.528 3.017 7.5 0 14.093 0 20.687 0 24.66 3.017 27.7 5.275l.138.103c2.931 2.175 4.832 3.51 8.209 3.51 3.376 0 5.277-1.335 8.209-3.51.045-.035.091-.069.138-.103C47.434 3.017 51.496 0 58 0s10.565 3.017 13.606 5.275l.138.103c2.932 2.175 4.833 3.51 8.21 3.51 3.375 0 5.277-1.335 8.208-3.51l.138-.103C91.341 3.017 95.403 0 101.907 0c6.503 0 10.565 3.017 13.606 5.275l.138.103-5.535 9.245c-2.932-2.176-4.833-3.512-8.209-3.512-3.377 0-5.278 1.335-8.21 3.511l-.138.103C90.52 16.983 86.457 20 79.953 20c-6.672 0-10.565-3.017-13.606-5.275l-.138-.102C63.278 12.447 61.376 11.11 58 11.11c-3.376 0-5.278 1.335-8.21 3.511-.045.034-.09.069-.137.103C46.612 16.983 42.55 20 36.047 20c-6.504 0-10.566-3.017-13.606-5.275l-.139-.102c-2.931-2.176-4.832-3.512-8.209-3.512z"/></svg>